<svg width="29" height="28" viewBox="0 0 29 28" fill="none" xmlns="http://www.w3.org/2000/svg">
<path d="M14.5 2.5C11.2178 2.50018 8.07005 3.80422 5.74928 6.12524C3.42852 8.44626 2.12483 11.5941 2.12501 14.8764C2.1252 18.1586 3.42923 21.3063 5.75026 23.6271C8.07128 25.9479 11.2192 27.2516 14.5014 27.2514C16.1266 27.2513 17.7359 26.9311 19.2373 26.3091C20.7388 25.6871 22.103 24.7754 23.2521 23.6261C24.4012 22.4769 25.3128 21.1125 25.9346 19.611C26.5565 18.1095 26.8765 16.5002 26.8764 14.875C26.8763 13.2498 26.5561 11.6405 25.9341 10.1391C25.3121 8.63763 24.4004 7.2734 23.2511 6.12427C22.1019 4.97515 20.7376 4.06364 19.236 3.44178C17.7345 2.81993 16.1252 2.49991 14.5 2.5ZM19.3125 19.6875C19.1853 19.815 19.0342 19.9161 18.8679 19.9851C18.7015 20.0541 18.5232 20.0896 18.3431 20.0896C18.1631 20.0896 17.9847 20.0541 17.8184 19.9851C17.6521 19.9161 17.501 19.815 17.3738 19.6875L13.5375 15.8513C13.4076 15.7239 13.3042 15.572 13.2334 15.4045C13.1626 15.2369 13.1258 15.0569 13.125 14.875V9.375C13.125 8.61875 13.7438 8 14.5 8C15.2563 8 15.875 8.61875 15.875 9.375V14.3113L19.3125 17.7488C19.8488 18.285 19.8488 19.1513 19.3125 19.6875ZM4.71001 1.19375L0.818765 5.085C0.691464 5.2123 0.590485 5.36343 0.52159 5.52976C0.452696 5.69608 0.417236 5.87435 0.417236 6.05438C0.417236 6.23441 0.452696 6.41267 0.52159 6.579C0.590485 6.74533 0.691464 6.89645 0.818765 7.02375C0.946065 7.15105 1.09719 7.25203 1.26352 7.32093C1.42984 7.38982 1.60811 7.42528 1.78814 7.42528C1.96817 7.42528 2.14644 7.38982 2.31276 7.32093C2.47909 7.25203 2.63021 7.15105 2.75751 7.02375L6.64876 3.1325C6.77606 3.0052 6.87704 2.85407 6.94594 2.68775C7.01483 2.52142 7.05029 2.34316 7.05029 2.16313C7.05029 1.9831 7.01483 1.80483 6.94594 1.6385C6.87704 1.47218 6.77606 1.32105 6.64876 1.19375C6.52146 1.06645 6.37034 0.965472 6.20401 0.896577C6.03769 0.827683 5.85942 0.792223 5.67939 0.792223C5.49936 0.792223 5.32109 0.827683 5.15477 0.896577C4.98844 0.965472 4.83731 1.06645 4.71001 1.19375ZM22.3513 1.19375C22.2238 1.32096 22.1227 1.47206 22.0537 1.63839C21.9847 1.80473 21.9492 1.98305 21.9492 2.16313C21.9492 2.34321 21.9847 2.52152 22.0537 2.68786C22.1227 2.8542 22.2238 3.0053 22.3513 3.1325L26.2425 7.02375C26.3698 7.15105 26.5209 7.25203 26.6873 7.32093C26.8536 7.38982 27.0319 7.42528 27.2119 7.42528C27.3919 7.42528 27.5702 7.38982 27.7365 7.32093C27.9028 7.25203 28.054 7.15105 28.1813 7.02375C28.3086 6.89645 28.4095 6.74533 28.4784 6.579C28.5473 6.41267 28.5828 6.23441 28.5828 6.05438C28.5828 5.87435 28.5473 5.69608 28.4784 5.52976C28.4095 5.36343 28.3086 5.2123 28.1813 5.085L24.29 1.19375C24.1628 1.06628 24.0117 0.965156 23.8454 0.896157C23.679 0.827157 23.5007 0.791641 23.3206 0.791641C23.1406 0.791641 22.9622 0.827157 22.7959 0.896157C22.6296 0.965156 22.4785 1.06628 22.3513 1.19375Z" fill="black"/>
</svg>
