<svg width="33" height="33" viewBox="0 0 33 33" fill="none" xmlns="http://www.w3.org/2000/svg">
<path d="M16.5 5.49999C13.2178 5.50017 10.07 6.80421 7.74928 9.12523C5.42852 11.4462 4.12483 14.5941 4.12501 17.8764C4.1252 21.1586 5.42923 24.3063 7.75026 26.6271C10.0713 28.9479 13.2192 30.2515 16.5014 30.2514C18.1266 30.2513 19.7359 29.9311 21.2373 29.3091C22.7388 28.687 24.103 27.7754 25.2521 26.6261C26.4012 25.4769 27.3128 24.1125 27.9346 22.611C28.5565 21.1095 28.8765 19.5002 28.8764 17.875C28.8763 16.2498 28.5561 14.6405 27.9341 13.1391C27.3121 11.6376 26.4004 10.2734 25.2511 9.12426C24.1019 7.97513 22.7376 7.06362 21.236 6.44177C19.7345 5.81991 18.1252 5.4999 16.5 5.49999ZM21.3125 22.6875C21.1853 22.815 21.0342 22.9161 20.8679 22.9851C20.7015 23.0541 20.5232 23.0896 20.3431 23.0896C20.1631 23.0896 19.9847 23.0541 19.8184 22.9851C19.6521 22.9161 19.501 22.815 19.3738 22.6875L15.5375 18.8512C15.4076 18.7239 15.3042 18.572 15.2334 18.4045C15.1626 18.2369 15.1258 18.0569 15.125 17.875V12.375C15.125 11.6187 15.7438 11 16.5 11C17.2563 11 17.875 11.6187 17.875 12.375V17.3112L21.3125 20.7487C21.8488 21.285 21.8488 22.1512 21.3125 22.6875ZM6.71001 4.19374L2.81876 8.08499C2.69146 8.21229 2.59048 8.36341 2.52159 8.52974C2.4527 8.69607 2.41724 8.87433 2.41724 9.05436C2.41724 9.23439 2.4527 9.41266 2.52159 9.57898C2.59048 9.74531 2.69146 9.89644 2.81876 10.0237C2.94606 10.151 3.09719 10.252 3.26352 10.3209C3.42984 10.3898 3.60811 10.4253 3.78814 10.4253C3.96817 10.4253 4.14644 10.3898 4.31276 10.3209C4.47909 10.252 4.63021 10.151 4.75751 10.0237L8.64876 6.13249C8.77606 6.00519 8.87704 5.85406 8.94594 5.68773C9.01483 5.52141 9.05029 5.34314 9.05029 5.16311C9.05029 4.98308 9.01483 4.80482 8.94594 4.63849C8.87704 4.47216 8.77606 4.32104 8.64876 4.19374C8.52146 4.06644 8.37034 3.96546 8.20401 3.89656C8.03769 3.82767 7.85942 3.79221 7.67939 3.79221C7.49936 3.79221 7.32109 3.82767 7.15477 3.89656C6.98844 3.96546 6.83731 4.06644 6.71001 4.19374ZM24.3513 4.19374C24.2238 4.32094 24.1227 4.47204 24.0537 4.63838C23.9847 4.80472 23.9492 4.98303 23.9492 5.16311C23.9492 5.34319 23.9847 5.52151 24.0537 5.68785C24.1227 5.85418 24.2238 6.00528 24.3513 6.13249L28.2425 10.0237C28.3698 10.151 28.5209 10.252 28.6873 10.3209C28.8536 10.3898 29.0319 10.4253 29.2119 10.4253C29.3919 10.4253 29.5702 10.3898 29.7365 10.3209C29.9028 10.252 30.054 10.151 30.1813 10.0237C30.3086 9.89644 30.4095 9.74531 30.4784 9.57898C30.5473 9.41266 30.5828 9.23439 30.5828 9.05436C30.5828 8.87433 30.5473 8.69607 30.4784 8.52974C30.4095 8.36341 30.3086 8.21229 30.1813 8.08499L26.29 4.19374C26.1628 4.06627 26.0117 3.96514 25.8454 3.89614C25.679 3.82714 25.5007 3.79163 25.3206 3.79163C25.1406 3.79163 24.9622 3.82714 24.7959 3.89614C24.6296 3.96514 24.4785 4.06627 24.3513 4.19374Z" fill="white"/>
</svg>
