<svg width="25" height="33" viewBox="0 0 25 33" fill="none" xmlns="http://www.w3.org/2000/svg">
<path d="M17.2234 7.41907C18.1783 7.41907 19.0942 7.02825 19.7695 6.33257C20.4447 5.6369 20.8241 4.69337 20.8241 3.70954C20.8241 2.72571 20.4447 1.78217 19.7695 1.0865C19.0942 0.390825 18.1783 0 17.2234 0C16.2684 0 15.3525 0.390825 14.6773 1.0865C14.002 1.78217 13.6227 2.72571 13.6227 3.70954C13.6227 4.69337 14.002 5.6369 14.6773 6.33257C15.3525 7.02825 16.2684 7.41907 17.2234 7.41907Z" fill="white"/>
<path d="M9.98994 10.9489C8.99214 11.2044 8.31121 11.5886 7.7615 12.0651C6.93733 12.7806 6.2716 13.8127 5.37222 15.435C5.1616 15.8146 4.81321 16.0925 4.4037 16.2075C3.99419 16.3225 3.5571 16.2653 3.18859 16.0483C2.82007 15.8313 2.55033 15.4724 2.43868 15.0505C2.32704 14.6286 2.38264 14.1783 2.59327 13.7986C3.48865 12.1854 4.39363 10.676 5.70029 9.54339C7.06376 8.35964 8.73289 7.69027 10.9837 7.43225C11.9247 7.32509 12.9601 7.34652 13.9307 7.79249C14.9493 8.26154 15.6935 9.10155 16.2008 10.2243C16.8841 11.7353 17.3922 12.6347 17.7987 13.1557C17.9947 13.4063 18.1316 13.5225 18.2092 13.5744C18.2708 13.6156 18.2972 13.6189 18.3068 13.6206H18.3076C18.3772 13.6288 18.6029 13.6206 19.2654 13.3181C19.5542 13.1862 19.8695 13.0279 20.2552 12.8342L20.3472 12.788C20.8189 12.5482 21.2948 12.3174 21.7747 12.0956C22.1621 11.9203 22.6012 11.9103 22.9958 12.0677C23.3904 12.2251 23.7084 12.5371 23.8803 12.9354C24.0522 13.3337 24.064 13.786 23.913 14.1932C23.7621 14.6005 23.4608 14.9296 23.0749 15.1085C22.6303 15.3142 22.1893 15.5282 21.7523 15.7507L21.6475 15.8034C21.2786 15.9889 20.9073 16.176 20.5592 16.3343C19.8391 16.6624 18.9189 17.0185 17.9211 16.894C16.8681 16.7621 16.0568 16.1497 15.3886 15.3278L13.2018 19.6745L16.2264 23.7287C16.4064 23.971 16.5176 24.2595 16.5488 24.5629L17.2146 31.1543C17.2399 31.3715 17.2231 31.5917 17.1651 31.8021C17.107 32.0125 17.0089 32.2089 16.8764 32.3798C16.744 32.5508 16.5798 32.6929 16.3935 32.7978C16.2072 32.9028 16.0026 32.9685 15.7914 32.9911C15.5802 33.0137 15.3668 32.9929 15.1635 32.9297C14.9602 32.8665 14.7712 32.7623 14.6074 32.6231C14.4436 32.4839 14.3083 32.3126 14.2095 32.119C14.1106 31.9254 14.0501 31.7135 14.0315 31.4956L13.4122 25.3683L11.5751 22.9051L11.5591 22.9356L11.4918 22.7939L8.09756 18.2435C7.93071 18.0198 7.82234 17.7558 7.78284 17.4767C7.74333 17.1975 7.774 16.9126 7.87192 16.6492L9.98994 10.9489Z" fill="white"/>
<path d="M7.56705 20.6143L6.38922 23.8787L1.74829 23.4995C1.53729 23.4793 1.3245 23.5025 1.12227 23.5677C0.920037 23.6329 0.73239 23.7389 0.570218 23.8794C0.408046 24.0199 0.27458 24.1922 0.177564 24.3863C0.0805478 24.5804 0.0219144 24.7924 0.00506621 25.01C-0.0117819 25.2277 0.0134905 25.4466 0.0794173 25.6541C0.145344 25.8615 0.250612 26.0535 0.389112 26.2187C0.527612 26.3839 0.696586 26.5192 0.886229 26.6166C1.07587 26.714 1.2824 26.7716 1.49384 26.7862L7.34141 27.2643C7.68845 27.2927 8.03503 27.2038 8.32859 27.011C8.62216 26.8182 8.84669 26.5321 8.96813 26.1959L9.86831 23.6998L7.56705 20.6143Z" fill="white"/>
</svg>
