<svg width="29" height="29" viewBox="0 0 29 29" fill="none" xmlns="http://www.w3.org/2000/svg">
<path d="M14.5 18.625C16.7782 18.625 18.625 16.7782 18.625 14.5C18.625 12.2218 16.7782 10.375 14.5 10.375C12.2218 10.375 10.375 12.2218 10.375 14.5C10.375 16.7782 12.2218 18.625 14.5 18.625Z" fill="black"/>
<path d="M15.875 3.59487V0.75H13.125V3.59487C10.7052 3.90336 8.4564 5.00664 6.73152 6.73152C5.00664 8.4564 3.90336 10.7052 3.59487 13.125H0.75V15.875H3.59487C3.90313 18.2949 5.00634 20.5438 6.73126 22.2687C8.45619 23.9937 10.7051 25.0969 13.125 25.4051V28.25H15.875V25.4051C18.2949 25.0969 20.5438 23.9937 22.2687 22.2687C23.9937 20.5438 25.0969 18.2949 25.4051 15.875H28.25V13.125H25.4051C25.0966 10.7052 23.9934 8.4564 22.2685 6.73152C20.5436 5.00664 18.2948 3.90336 15.875 3.59487V3.59487ZM14.5 22.75C9.95012 22.75 6.25 19.0499 6.25 14.5C6.25 9.95012 9.95012 6.25 14.5 6.25C19.0499 6.25 22.75 9.95012 22.75 14.5C22.75 19.0499 19.0499 22.75 14.5 22.75Z" fill="black"/>
</svg>
