<svg width="24" height="24" viewBox="0 0 24 24" fill="none" xmlns="http://www.w3.org/2000/svg">
<path d="M12.0116 9.15468C11.3108 9.15468 10.6546 9.42656 10.1577 9.92343C9.66317 10.4203 9.38895 11.0766 9.38895 11.7773C9.38895 12.4781 9.66317 13.1344 10.1577 13.6312C10.6546 14.1258 11.3108 14.4 12.0116 14.4C12.7124 14.4 13.3686 14.1258 13.8655 13.6312C14.36 13.1344 14.6343 12.4781 14.6343 11.7773C14.6343 11.0766 14.36 10.4203 13.8655 9.92343C13.6228 9.67888 13.334 9.48498 13.0157 9.35301C12.6974 9.22104 12.3561 9.15363 12.0116 9.15468ZM21.6749 14.6742L20.1421 13.3641C20.2147 12.9187 20.2522 12.4641 20.2522 12.0117C20.2522 11.5594 20.2147 11.1023 20.1421 10.6594L21.6749 9.34921C21.7907 9.25009 21.8736 9.11806 21.9125 8.97069C21.9514 8.82333 21.9446 8.6676 21.8929 8.52421L21.8718 8.46328C21.4499 7.28364 20.8178 6.1902 20.0061 5.23593L19.964 5.18671C19.8654 5.07082 19.734 4.98751 19.5872 4.94776C19.4403 4.90802 19.2849 4.9137 19.1413 4.96406L17.2382 5.6414C16.535 5.06484 15.7522 4.61015 14.9038 4.29375L14.5358 2.3039C14.5081 2.154 14.4353 2.01609 14.3273 1.90851C14.2193 1.80092 14.0811 1.72874 13.9311 1.70156L13.8679 1.68984C12.6491 1.46953 11.3647 1.46953 10.146 1.68984L10.0827 1.70156C9.93269 1.72874 9.79451 1.80092 9.6865 1.90851C9.57849 2.01609 9.50578 2.154 9.47801 2.3039L9.1077 4.30312C8.2673 4.62205 7.48441 5.07563 6.78973 5.64609L4.87255 4.96406C4.72903 4.9133 4.57346 4.90741 4.42652 4.94718C4.27958 4.98695 4.14821 5.0705 4.04989 5.18671L4.0077 5.23593C3.19745 6.19122 2.56553 7.28439 2.14208 8.46328L2.12098 8.52421C2.01551 8.81718 2.10223 9.14531 2.33895 9.34921L3.89051 10.6734C3.81786 11.1141 3.7827 11.5641 3.7827 12.0094C3.7827 12.4594 3.81786 12.9094 3.89051 13.3453L2.34364 14.6695C2.22785 14.7687 2.14497 14.9007 2.10604 15.048C2.0671 15.1954 2.07395 15.3511 2.12567 15.4945L2.14676 15.5555C2.57098 16.7344 3.19676 17.8242 4.01239 18.7828L4.05458 18.832C4.15314 18.9479 4.28451 19.0312 4.43136 19.071C4.57822 19.1107 4.73367 19.105 4.87723 19.0547L6.79442 18.3727C7.49286 18.9469 8.27098 19.4016 9.11239 19.7156L9.4827 21.7148C9.51046 21.8647 9.58318 22.0026 9.69119 22.1102C9.79919 22.2178 9.93738 22.29 10.0874 22.3172L10.1507 22.3289C11.3814 22.5504 12.6418 22.5504 13.8725 22.3289L13.9358 22.3172C14.0858 22.29 14.224 22.2178 14.332 22.1102C14.44 22.0026 14.5128 21.8647 14.5405 21.7148L14.9085 19.725C15.7569 19.4062 16.5397 18.9539 17.2429 18.3773L19.146 19.0547C19.2895 19.1054 19.4451 19.1113 19.592 19.0716C19.739 19.0318 19.8703 18.9482 19.9686 18.832L20.0108 18.7828C20.8265 17.8195 21.4522 16.7344 21.8765 15.5555L21.8975 15.4945C21.9983 15.2039 21.9116 14.8781 21.6749 14.6742ZM12.0116 15.8976C9.73583 15.8976 7.8913 14.0531 7.8913 11.7773C7.8913 9.50156 9.73583 7.65703 12.0116 7.65703C14.2874 7.65703 16.1319 9.50156 16.1319 11.7773C16.1319 14.0531 14.2874 15.8976 12.0116 15.8976Z" fill="black" fill-opacity="0.87"/>
</svg>
