<svg width="24" height="52" viewBox="0 0 24 52" fill="none" xmlns="http://www.w3.org/2000/svg">
<path d="M0.996582 47.0911V4.24757C0.996582 1.97677 2.83743 0.135925 5.10823 0.135925C7.37903 0.135925 9.21988 1.97678 9.21988 4.24758V47.602C9.21988 48.7793 8.72842 49.9032 7.86405 50.7026L7.69452 50.8594C7.02305 51.4803 6.14211 51.8252 5.22753 51.8252C4.1726 51.8252 3.16974 51.3667 2.47957 50.5689L2.15034 50.1883C1.40615 49.328 0.996582 48.2286 0.996582 47.0911Z" fill="#43C079"/>
<path d="M15.0936 47.0911V4.24757C15.0936 1.97677 16.9345 0.135925 19.2053 0.135925C21.4761 0.135925 23.3169 1.97678 23.3169 4.24758V47.602C23.3169 48.7793 22.8255 49.9032 21.9611 50.7026L21.7916 50.8594C21.1201 51.4803 20.2392 51.8252 19.3246 51.8252C18.2696 51.8252 17.2668 51.3667 16.5766 50.5689L16.2474 50.1883C15.5032 49.328 15.0936 48.2286 15.0936 47.0911Z" fill="#43C079"/>
</svg>
