<svg width="34" height="31" viewBox="0 0 34 31" fill="none" xmlns="http://www.w3.org/2000/svg">
<path d="M4.82981 11.9738L8.15609 5.92599C9.35435 3.74734 12.5286 3.88172 13.5385 6.15385L14.1171 7.11823C14.9537 8.51252 15.5031 10.06 15.733 11.6696C15.91 12.9082 15.8953 14.1665 15.6896 15.4006L15.6219 15.807C15.4641 16.754 15.2149 17.6834 14.8778 18.5823L14.4319 19.7713C13.8375 21.3564 13.1003 22.8842 12.2293 24.3358L9.91133 28.1991C9.86804 28.2712 9.81607 28.3378 9.75658 28.3973L8.55385 29.6L8.71152 29.6676C8.96478 29.7761 8.88725 30.1538 8.61171 30.1538C8.38597 30.1538 8.27293 29.8809 8.43254 29.7213L8.55385 29.6L5.53846 28.3077L4.27913 27.5521C3.08577 26.8361 2.087 25.8373 1.37098 24.6439L1.29863 24.5234C0.846498 23.7698 0.527288 22.9441 0.354945 22.0824C0.121523 20.9153 0.16304 19.7099 0.476209 18.5616L1.46361 14.9411C1.69987 14.0748 2.3855 13.4036 3.25663 13.1858C3.92682 13.0183 4.49689 12.5791 4.82981 11.9738Z" fill="#43C079"/>
<path d="M28.4009 11.3584L25.0746 5.3106C23.8764 3.13195 20.7021 3.26634 19.6923 5.53846L19.1136 6.50284C18.277 7.89713 17.7276 9.44459 17.4977 11.0543C17.3208 12.2928 17.3354 13.5511 17.5411 14.7852L17.6088 15.1916C17.7666 16.1386 18.0158 17.068 18.3529 17.9669L18.8925 19.4058C19.4246 20.8246 20.0845 22.1922 20.8641 23.4915L23.2875 27.5306C23.3516 27.6374 23.4358 27.7307 23.5354 27.8055L24.951 28.8671L24.7848 28.9383C24.4723 29.0723 24.568 29.5385 24.908 29.5385C25.2085 29.5385 25.336 29.1559 25.0956 28.9756L24.951 28.8671L27.6923 27.6923L28.9516 26.9367C30.1449 26.2207 31.1437 25.2219 31.8597 24.0286L31.9321 23.908C32.3842 23.1544 32.7034 22.3288 32.8758 21.467C33.1092 20.2999 33.0677 19.0945 32.7545 17.9462L31.7671 14.3257C31.5308 13.4594 30.8452 12.7882 29.9741 12.5705C29.3039 12.4029 28.7338 11.9637 28.4009 11.3584Z" fill="#43C079"/>
</svg>
