<svg width="35" height="31" viewBox="0 0 35 31" fill="none" xmlns="http://www.w3.org/2000/svg">
<path d="M5.82981 11.9738L9.15609 5.92599C10.3543 3.74734 13.5286 3.88172 14.5385 6.15385L15.1171 7.11823C15.9537 8.51252 16.5031 10.06 16.733 11.6696C16.91 12.9082 16.8953 14.1665 16.6896 15.4006L16.6219 15.807C16.4641 16.754 16.2149 17.6834 15.8778 18.5823L15.4319 19.7713C14.8375 21.3564 14.1003 22.8842 13.2293 24.3358L10.9113 28.1991C10.868 28.2712 10.8161 28.3378 10.7566 28.3973L9.55385 29.6L9.71152 29.6676C9.96478 29.7761 9.88725 30.1538 9.61171 30.1538C9.38597 30.1538 9.27293 29.8809 9.43254 29.7213L9.55385 29.6L6.53846 28.3077L5.27913 27.5521C4.08577 26.8361 3.087 25.8373 2.37098 24.6439L2.29863 24.5234C1.8465 23.7698 1.52729 22.9441 1.35495 22.0824C1.12152 20.9153 1.16304 19.7099 1.47621 18.5616L2.46361 14.9411C2.69987 14.0748 3.3855 13.4036 4.25663 13.1858C4.92682 13.0183 5.49689 12.5791 5.82981 11.9738Z" fill="#43C079"/>
<path d="M6.53846 28.3077L5.27913 27.5521C4.08577 26.8361 3.087 25.8373 2.37098 24.6439L2.29863 24.5234C1.8465 23.7698 1.52729 22.9441 1.35495 22.0824V22.0824C1.12152 20.9153 1.16304 19.7099 1.47621 18.5616L2.46361 14.9411C2.69987 14.0748 3.3855 13.4036 4.25663 13.1858V13.1858C4.92682 13.0183 5.49689 12.5791 5.82981 11.9738L9.15609 5.92599C10.3543 3.74734 13.5286 3.88172 14.5385 6.15385V6.15385L15.1171 7.11823C15.9537 8.51252 16.5031 10.06 16.733 11.6696V11.6696C16.91 12.9082 16.8953 14.1665 16.6896 15.4006L16.6219 15.807C16.4641 16.754 16.2149 17.6834 15.8778 18.5823L15.4319 19.7713C14.8375 21.3564 14.1003 22.8842 13.2293 24.3358L10.9113 28.1991C10.868 28.2712 10.8161 28.3378 10.7566 28.3973L9.43255 29.7213C9.27293 29.8809 9.38597 30.1538 9.61171 30.1538V30.1538C9.88725 30.1538 9.96478 29.7761 9.71152 29.6676L6.53846 28.3077Z" stroke="#212121"/>
<path d="M29.4009 11.3584L26.0746 5.3106C24.8764 3.13195 21.7021 3.26634 20.6923 5.53846L20.1136 6.50284C19.277 7.89713 18.7276 9.44459 18.4977 11.0543C18.3208 12.2928 18.3354 13.5511 18.5411 14.7852L18.6088 15.1916C18.7666 16.1386 19.0158 17.068 19.3529 17.9669L19.8925 19.4058C20.4246 20.8246 21.0845 22.1922 21.8641 23.4915L24.2875 27.5306C24.3516 27.6374 24.4358 27.7307 24.5354 27.8055L25.951 28.8671L25.7848 28.9383C25.4723 29.0723 25.568 29.5385 25.908 29.5385C26.2085 29.5385 26.336 29.1559 26.0956 28.9756L25.951 28.8671L28.6923 27.6923L29.9516 26.9367C31.1449 26.2207 32.1437 25.2219 32.8597 24.0286L32.9321 23.908C33.3842 23.1544 33.7034 22.3288 33.8758 21.467C34.1092 20.2999 34.0677 19.0945 33.7545 17.9462L32.7671 14.3257C32.5308 13.4594 31.8452 12.7882 30.9741 12.5705C30.3039 12.4029 29.7338 11.9637 29.4009 11.3584Z" fill="#43C079"/>
<path d="M28.6923 27.6923L29.9516 26.9367C31.1449 26.2207 32.1437 25.2219 32.8597 24.0286L32.9321 23.908C33.3842 23.1544 33.7034 22.3287 33.8758 21.467V21.467C34.1092 20.2999 34.0677 19.0945 33.7545 17.9462L32.7671 14.3257C32.5308 13.4594 31.8452 12.7882 30.9741 12.5705V12.5705C30.3039 12.4029 29.7338 11.9637 29.4009 11.3584L26.0746 5.3106C24.8764 3.13195 21.7021 3.26634 20.6923 5.53846V5.53846L20.1136 6.50284C19.277 7.89713 18.7276 9.44459 18.4977 11.0543V11.0543C18.3208 12.2928 18.3354 13.5511 18.5411 14.7852L18.6088 15.1916C18.7666 16.1386 19.0158 17.068 19.3529 17.9669L19.8925 19.4058C20.4246 20.8246 21.0845 22.1922 21.8641 23.4915L24.2875 27.5306C24.3516 27.6374 24.4358 27.7307 24.5354 27.8055L26.0956 28.9756C26.336 29.1559 26.2085 29.5385 25.908 29.5385V29.5385C25.568 29.5385 25.4723 29.0723 25.7848 28.9383L28.6923 27.6923Z" stroke="#212121"/>
</svg>
