<svg width="49" height="121" viewBox="0 0 49 121" fill="none" xmlns="http://www.w3.org/2000/svg">
<path d="M4.63683 68.5371C7.19589 68.5371 9.27127 66.4637 9.27236 63.9046C9.27432 63.9038 9.27845 35.5967 9.27845 35.5967C9.27845 35.3305 9.49375 35.1143 9.76103 35.1143H10.7425C11.0087 35.1143 11.2251 35.3296 11.2251 35.5967C11.2251 35.5967 11.2251 115.012 11.2251 115.022C11.2251 118.323 13.9016 121 17.2029 121C20.5044 121 23.1807 118.323 23.1807 115.022C23.1807 115.012 23.1807 68.2894 23.1807 68.2894C23.1807 67.9484 23.3388 67.8068 23.6746 67.8068H24.6384C24.9753 67.8068 25.1323 67.9493 25.1323 68.2894C25.1323 68.2894 25.1323 115.014 25.1323 115.022C25.1323 118.323 27.809 121 31.1103 121C34.4116 121 37.0881 118.323 37.0881 115.022C37.0881 115.012 37.0881 35.5967 37.0881 35.5967C37.0881 35.3305 37.3032 35.1143 37.5705 35.1143H38.5522C38.8186 35.1143 39.0348 35.3296 39.0348 35.5967C39.0348 35.5967 39.0391 63.9038 39.0409 63.9046C39.043 66.4637 41.1176 68.5371 43.6764 68.5371C46.2363 68.5371 48.3128 66.4617 48.3128 63.9007C48.3128 63.8861 48.3128 32.071 48.3128 31.6915C48.3128 25.3476 43.4319 20.4666 37.3324 20.4666C37.1775 20.4666 28.9775 20.4666 25.1321 20.4666C25.1321 20.4666 24.3616 20.4666 23.1805 20.4666C19.3352 20.4666 11.1353 20.4666 10.9804 20.4666C4.87975 20.4666 0 25.3463 0 31.6915C0 32.071 0 63.8861 0 63.9007C0.000217477 66.4619 2.07582 68.5371 4.63683 68.5371Z" fill="black"/>
<path d="M24.1572 17.7914C29.0701 17.7914 33.0528 13.8086 33.0528 8.89569C33.0528 3.98274 29.0701 0 24.1572 0C19.2442 0 15.2615 3.98274 15.2615 8.89569C15.2615 13.8086 19.2442 17.7914 24.1572 17.7914Z" fill="black"/>
</svg>
