<svg width="80" height="80" viewBox="0 0 80 80" fill="none" xmlns="http://www.w3.org/2000/svg">
<g clip-path="url(#clip0_887_50)">
<path d="M49.3947 68.6628L49.5491 68.5507C56.9122 63.1954 56.2453 60.8395 54.5447 57.4369C53.6084 55.5659 52.55 53.4459 53.6143 49.8117C53.888 48.175 54.6044 47.2883 55.4373 46.2603C56.1726 45.3504 57.0039 44.3224 57.5675 42.632C57.9459 41.1105 57.237 38.8784 56.6152 36.9098C56.404 36.2415 56.1857 35.5542 56.0503 34.998C59.584 36.0842 63.3057 37.744 64.7471 41.5852L64.7531 41.5968C65.1068 44.2045 66.3648 50.4975 70.4869 53.9337L70.6339 54.056L78.5212 52.8213L78.6143 52.6553C81.854 46.9854 78.7846 43.2915 75.8187 39.7199C74.4778 38.1051 73.2096 36.5779 72.5353 34.8918C71.9485 33.4197 71.8029 31.6987 71.6646 30.0126C71.452 27.5054 71.2336 24.9151 69.5577 22.865C68.0624 21.0332 64.6596 18.9919 62.541 18.3032C61.2728 17.8912 59.9493 17.8359 58.8194 17.8359C58.4744 17.8359 58.1292 17.8402 57.7783 17.8475C57.4274 17.8518 57.0808 17.8591 56.7329 17.8591C54.894 17.8591 53.384 17.6757 51.992 16.7846C51.1272 16.2313 50.4282 15.4945 49.687 14.7126C49.0406 14.0284 48.3095 13.2551 47.4521 12.6582C46.0674 11.6899 44.4265 11.5414 42.8364 11.3974C41.954 11.3173 38.0432 11.3173 37.1563 11.3988C35.5721 11.543 33.9326 11.6901 32.5465 12.6582C31.6977 13.2508 30.9944 13.9934 30.3116 14.7126C29.572 15.4945 28.873 16.2313 28.0082 16.7846C26.6148 17.6757 25.1078 17.8591 23.2687 17.8591C22.9237 17.8591 22.5728 17.8518 22.2117 17.8475C21.8696 17.8402 21.5244 17.8359 21.1794 17.8359C20.0524 17.8359 18.7274 17.8912 17.4592 18.3032C15.3407 18.9919 11.9364 21.0332 10.4425 22.865C8.76516 24.9151 8.54519 27.5111 8.33418 30.0302C8.1959 31.6987 8.05313 33.4197 7.46345 34.8918C6.78779 36.5808 5.52102 38.1053 4.18009 39.7199C1.21413 43.2931 -1.85374 46.9885 1.38448 52.6553L1.47906 52.8213L9.38529 53.9163L9.53092 53.794C13.6515 50.3593 14.9109 44.0677 15.2647 41.46L15.269 41.4455C16.7104 37.6016 20.4336 35.9445 23.9659 34.8597C23.8348 35.4071 23.6252 36.074 23.4024 36.7715C22.7778 38.7416 22.0715 40.9736 22.4618 42.5374C23.0137 44.1929 23.845 45.218 24.5789 46.1206C25.4088 47.1486 26.1267 48.0367 26.4178 49.7447C27.4646 53.3061 26.4047 55.4276 25.4698 57.3014C23.7707 60.7012 23.1038 63.0571 30.4669 68.4124L30.6227 68.5245L49.3947 68.6628ZM31.9035 50.8089C31.0299 49.9279 29.7355 49.0035 28.5895 48.1822L28.5327 48.1413C27.8266 47.6376 27.1611 47.1629 26.6734 46.7536L26.5249 46.6313L26.503 46.6575C26.2032 46.1959 25.8696 45.778 25.5289 45.3543C24.8286 44.4879 24.102 43.5924 23.6316 42.1962C23.339 41.0139 24.0175 38.8677 24.5635 37.1364C24.8984 36.0794 25.1474 35.264 25.2565 34.5957C27.9312 34.4327 29.8532 31.2104 31.5567 28.3537C32.5336 26.7128 33.6417 24.8563 34.3464 24.785C34.6726 24.7487 35.0774 24.9176 35.5112 25.2801C37.2206 26.7056 39.0027 30.7708 39.2517 33.8095C39.517 37.0422 36.1477 47.2649 31.9035 50.8089ZM56.3997 42.2897C55.9177 43.7297 55.1942 44.6265 54.4908 45.493C54.1356 45.9313 53.7933 46.3637 53.4847 46.8441C53.0114 47.2285 52.4203 47.6538 51.6966 48.1677C50.5405 48.9918 49.2388 49.9208 48.3593 50.8074C44.115 47.2634 40.7487 37.0406 41.0122 33.8083C41.2597 30.7696 43.0447 26.7029 44.7541 25.2789C45.1501 24.9455 45.5098 24.778 45.8228 24.778C45.8534 24.778 45.8854 24.7809 45.9188 24.7839C46.622 24.8552 47.7795 26.7977 48.7099 28.3586C50.3466 31.1076 52.1971 34.2133 54.7409 34.5685C54.8268 35.2586 55.0918 36.1351 55.4529 37.2767C55.9731 38.9103 56.6836 41.1452 56.3997 42.2897Z" fill="black" fill-opacity="0.87"/>
<path d="M28.2144 32.8969L31.5407 26.8491C32.739 24.6704 35.9132 24.8048 36.9231 27.0769L37.5017 28.0413C38.3383 29.4356 38.8877 30.9831 39.1176 32.5927C39.2946 33.8312 39.2799 35.0896 39.0743 36.3237L39.0065 36.7301C38.8487 37.677 38.5995 38.6065 38.2624 39.5053L37.8165 40.6944C37.2221 42.2795 36.4849 43.8072 35.6139 45.2589L33.2959 49.1222C33.2527 49.1943 33.2007 49.2609 33.1412 49.3203L31.9385 50.5231L32.0961 50.5907C32.3494 50.6992 32.2719 51.0769 31.9963 51.0769C31.7706 51.0769 31.6575 50.804 31.8172 50.6444L31.9385 50.5231L28.9231 49.2308L27.6637 48.4752C26.4704 47.7592 25.4716 46.7604 24.7556 45.567L24.6832 45.4464C24.2311 44.6929 23.9119 43.8672 23.7396 43.0055C23.5061 41.8384 23.5477 40.633 23.8608 39.4847L24.8482 35.8642C25.0845 34.9979 25.7701 34.3267 26.6412 34.1089C27.3114 33.9414 27.8815 33.5022 28.2144 32.8969Z" fill="#212121"/>
<path d="M28.9231 49.2308L27.6637 48.4752C26.4704 47.7592 25.4716 46.7604 24.7556 45.567L24.6832 45.4464C24.2311 44.6929 23.9119 43.8672 23.7396 43.0055V43.0055C23.5061 41.8384 23.5477 40.633 23.8608 39.4847L24.8482 35.8642C25.0845 34.9979 25.7701 34.3267 26.6412 34.1089V34.1089C27.3114 33.9414 27.8815 33.5022 28.2144 32.8969L31.5407 26.8491C32.739 24.6704 35.9132 24.8048 36.9231 27.0769V27.0769L37.5017 28.0413C38.3383 29.4356 38.8877 30.9831 39.1176 32.5927V32.5927C39.2946 33.8312 39.2799 35.0896 39.0743 36.3237L39.0065 36.7301C38.8487 37.677 38.5995 38.6065 38.2624 39.5053L37.8165 40.6944C37.2221 42.2795 36.4849 43.8072 35.6139 45.2589L33.2959 49.1222C33.2527 49.1943 33.2007 49.2609 33.1412 49.3203L31.8172 50.6444C31.6575 50.804 31.7706 51.0769 31.9963 51.0769V51.0769C32.2719 51.0769 32.3494 50.6992 32.0961 50.5907L28.9231 49.2308Z" stroke="#212121"/>
<path d="M51.7856 32.2815L48.4593 26.2337C47.261 24.055 44.0868 24.1894 43.0769 26.4615L42.4983 27.4259C41.6617 28.8202 41.1123 30.3677 40.8824 31.9773C40.7054 33.2158 40.7201 34.4742 40.9257 35.7083L40.9935 36.1147C41.1513 37.0617 41.4005 37.9911 41.7376 38.8899L42.2772 40.3289C42.8092 41.7477 43.4692 43.1153 44.2488 44.4146L46.6722 48.4537C46.7363 48.5605 46.8205 48.6538 46.9201 48.7285L48.3357 49.7902L48.1695 49.8614C47.8569 49.9954 47.9526 50.4615 48.2927 50.4615C48.5932 50.4615 48.7207 50.079 48.4803 49.8987L48.3357 49.7902L51.0769 48.6154L52.3363 47.8598C53.5296 47.1438 54.5284 46.145 55.2444 44.9516L55.3168 44.831C55.7689 44.0775 56.0881 43.2518 56.2604 42.3901C56.4939 41.223 56.4523 40.0176 56.1392 38.8693L55.1518 35.2488C54.9155 34.3825 54.2299 33.7113 53.3588 33.4935C52.6886 33.326 52.1185 32.8868 51.7856 32.2815Z" fill="#212121"/>
<path d="M51.0769 48.6154L52.3363 47.8598C53.5296 47.1438 54.5284 46.145 55.2444 44.9516L55.3168 44.831C55.7689 44.0775 56.0881 43.2518 56.2604 42.3901V42.3901C56.4939 41.223 56.4523 40.0176 56.1392 38.8693L55.1518 35.2488C54.9155 34.3825 54.2299 33.7113 53.3588 33.4935V33.4935C52.6886 33.326 52.1185 32.8868 51.7856 32.2815L48.4593 26.2337C47.261 24.055 44.0868 24.1894 43.0769 26.4615V26.4615L42.4983 27.4259C41.6617 28.8202 41.1123 30.3677 40.8824 31.9773V31.9773C40.7054 33.2158 40.7201 34.4742 40.9257 35.7083L40.9935 36.1147C41.1513 37.0617 41.4005 37.9911 41.7376 38.8899L42.2772 40.3289C42.8092 41.7477 43.4692 43.1153 44.2488 44.4146L46.6722 48.4537C46.7363 48.5605 46.8205 48.6538 46.9201 48.7285L48.4803 49.8987C48.7207 50.079 48.5932 50.4615 48.2927 50.4615V50.4615C47.9526 50.4615 47.8569 49.9954 48.1695 49.8614L51.0769 48.6154Z" stroke="#212121"/>
</g>
<defs>
<clipPath id="clip0_887_50">
<rect width="80" height="80" fill="white"/>
</clipPath>
</defs>
</svg>
