<svg width="431" height="449" viewBox="0 0 431 449" fill="none" xmlns="http://www.w3.org/2000/svg">
<g filter="url(#filter0_d_1769_1891)">
<path d="M365.016 205.501L375.183 195.976C379.581 191.857 382.121 186.262 382.329 180.248C382.537 174.22 380.388 168.494 376.271 164.112L356.547 143.057L367.288 132.996C372.498 128.115 372.78 119.976 367.917 114.785C363.055 109.594 354.914 109.343 349.703 114.223L338.963 124.284L319.252 103.242C311.032 94.4671 296.193 93.9972 287.372 102.261L277.204 111.785L273.946 108.307C265.738 99.5316 250.887 99.0617 242.065 107.325L234.256 114.64C225.168 123.153 224.674 137.449 233.155 146.516L271.533 187.486L161.356 290.693L122.98 249.672C114.511 240.618 100.2 240.204 91.1127 248.691L83.3038 256.006C78.8931 260.138 76.3527 265.733 76.145 271.747C75.9369 277.774 78.0856 283.5 82.2022 287.882L85.4734 291.374L75.306 300.898C70.8952 305.017 68.3547 310.612 68.1476 316.627C67.9394 322.654 70.0882 328.38 74.2048 332.762L93.9285 353.817L83.1881 363.878C77.9776 368.759 77.6971 376.899 82.5597 382.09C84.9846 384.678 88.2378 386.043 91.5359 386.144C94.8333 386.245 98.1743 385.084 100.773 382.65L111.513 372.59L131.225 393.632C135.34 398.039 140.914 400.557 146.943 400.743C152.958 400.928 158.707 398.758 163.105 394.626L173.272 385.102L176.53 388.581C180.647 392.975 186.22 395.493 192.249 395.679C198.264 395.864 204.013 393.694 208.411 389.562L216.22 382.247C225.308 373.734 225.801 359.437 217.321 350.371L178.943 309.401L289.12 206.194L327.498 247.164C331.738 251.69 337.433 254.058 343.204 254.236C348.975 254.413 354.821 252.388 359.366 248.132L367.175 240.817C371.585 236.685 374.125 231.103 374.333 225.088C374.541 219.061 372.392 213.335 368.275 208.953L365.016 205.501Z" fill="white"/>
</g>
<path d="M112.5 37.5C97.6664 37.5 83.166 41.8987 70.8323 50.1398C58.4986 58.3809 48.8856 70.0943 43.2091 83.7987C37.5325 97.5032 36.0472 112.583 38.9411 127.132C41.835 141.68 48.9781 155.044 59.467 165.533C69.956 176.022 83.3197 183.165 97.8683 186.059C112.417 188.953 127.497 187.468 141.201 181.791C154.906 176.114 166.619 166.501 174.86 154.168C183.101 141.834 187.5 127.334 187.5 112.5C187.5 92.6088 179.598 73.5322 165.533 59.467C151.468 45.4018 132.391 37.5 112.5 37.5ZM112.5 175C100.139 175 88.055 171.334 77.7769 164.467C67.4988 157.599 59.488 147.838 54.7576 136.418C50.0271 124.997 48.7894 112.431 51.201 100.307C53.6125 88.183 59.5651 77.0466 68.3059 68.3058C77.0466 59.565 88.1831 53.6125 100.307 51.2009C112.431 48.7893 124.997 50.0271 136.418 54.7575C147.838 59.488 157.599 67.4988 164.467 77.7769C171.334 88.0549 175 100.139 175 112.5C175 120.708 173.383 128.835 170.243 136.418C167.102 144.001 162.498 150.891 156.694 156.694C150.891 162.498 144.001 167.102 136.418 170.242C128.835 173.383 120.708 175 112.5 175Z" fill="white"/>
<path d="M112.5 125.437C110.345 125.437 108.278 124.581 106.755 123.058C105.231 121.534 104.375 119.467 104.375 117.312V79.8125C104.375 77.6576 105.231 75.591 106.755 74.0673C108.278 72.5435 110.345 71.6875 112.5 71.6875C114.655 71.6875 116.722 72.5435 118.245 74.0673C119.769 75.591 120.625 77.6576 120.625 79.8125V117.312C120.625 119.467 119.769 121.534 118.245 123.058C116.722 124.581 114.655 125.437 112.5 125.437Z" fill="white"/>
<path d="M112.188 153.25C117.365 153.25 121.562 149.053 121.562 143.875C121.562 138.697 117.365 134.5 112.188 134.5C107.01 134.5 102.812 138.697 102.812 143.875C102.812 149.053 107.01 153.25 112.188 153.25Z" fill="white"/>
<defs>
<filter id="filter0_d_1769_1891" x="64.1338" y="93.3503" width="322.209" height="312.404" filterUnits="userSpaceOnUse" color-interpolation-filters="sRGB">
<feFlood flood-opacity="0" result="BackgroundImageFix"/>
<feColorMatrix in="SourceAlpha" type="matrix" values="0 0 0 0 0 0 0 0 0 0 0 0 0 0 0 0 0 0 127 0" result="hardAlpha"/>
<feOffset dy="1"/>
<feGaussianBlur stdDeviation="2"/>
<feColorMatrix type="matrix" values="0 0 0 0 0 0 0 0 0 0 0 0 0 0 0 0 0 0 0.25 0"/>
<feBlend mode="normal" in2="BackgroundImageFix" result="effect1_dropShadow_1769_1891"/>
<feBlend mode="normal" in="SourceGraphic" in2="effect1_dropShadow_1769_1891" result="shape"/>
</filter>
</defs>
</svg>
