<svg xmlns="http://www.w3.org/2000/svg" viewBox="0 0 512 512" width="512" height="512"><rect width="512" height="512" rx="96" fill="#EE373F"/><g fill="#fff" transform="translate(-155.78 63.84) scale(7.8434)"><path d="M47.7291 9.86096V8.30124C47.7291 7.62665 47.4654 6.99091 46.9881 6.51359C46.5097 6.03525 45.875 5.77258 45.1994 5.7736H41.9573V4.12597C41.9573 3.32668 41.3114 2.68073 40.5121 2.68073C39.7128 2.68073 39.0668 3.32669 39.0668 4.12597V5.7736H35.8268C34.4756 5.7736 33.2971 6.95002 33.2971 8.30328V9.863H32.7615C31.4113 9.86198 30.2318 11.0395 30.2318 12.3927V13.5906C30.2318 14.9848 31.3663 16.1193 32.7615 16.1203H39.0699V33.0217L32.7574 33.0176C31.3643 33.0166 30.2308 34.1542 30.2288 35.5463V36.7442C30.2288 37.4208 30.4925 38.0566 30.9698 38.5339C31.4481 39.0122 32.0828 39.2749 32.7584 39.2739H33.2961V40.8336C33.295 41.5092 33.5587 42.145 34.0361 42.6223C34.5144 43.1006 35.1491 43.3633 35.8247 43.3623H39.0668V45.0099C39.0668 45.8092 39.7128 46.4551 40.5121 46.4551C40.9107 46.4551 41.2725 46.2937 41.5342 46.032C41.7958 45.7703 41.9573 45.4085 41.9573 45.0099V43.3623H45.1974C45.875 43.3633 46.5097 43.1006 46.9881 42.6223C47.4654 42.145 47.7291 41.5092 47.7281 40.8336V39.2739H48.2637C48.9403 39.2739 49.575 39.0112 50.0534 38.5329C50.5307 38.0555 50.7944 37.4198 50.7934 36.7442V35.5463C50.7934 34.1522 49.6588 33.0176 48.2637 33.0166H41.9553V16.1152H48.2637C48.9607 16.1152 49.5924 15.8311 50.0503 15.3732C50.5082 14.9153 50.7913 14.2826 50.7913 13.5855V12.3876C50.7913 11.711 50.5286 11.0763 50.0513 10.5989C49.573 10.1206 48.9383 9.85789 48.2626 9.85891L47.7291 9.86096Z"/><path d="M72.1925 9.86096V8.30124C72.1925 7.62665 71.9288 6.99091 71.4515 6.51359C70.9731 6.03525 70.3384 5.77258 69.6628 5.7736H66.4207V4.12597C66.4207 3.32668 65.7747 2.68073 64.9755 2.68073C64.1762 2.68073 63.5302 3.32669 63.5302 4.12597V5.7736H60.2902C58.9389 5.7736 57.7605 6.95002 57.7605 8.30328V9.863H57.2249C55.8747 9.86198 54.6952 11.0395 54.6952 12.3927V13.5906C54.6952 14.9848 55.8297 16.1193 57.2249 16.1203H63.5333V33.0217L57.2208 33.0176C55.8277 33.0166 54.6942 34.1542 54.6921 35.5463V36.7442C54.6921 37.4208 54.9558 38.0566 55.4332 38.5339C55.9115 39.0122 56.5462 39.2749 57.2218 39.2739H57.7594V40.8336C57.7584 41.5092 58.0221 42.145 58.4994 42.6223C58.9778 43.1006 59.6125 43.3633 60.2881 43.3623H63.5302V45.0099C63.5302 45.8092 64.1762 46.4551 64.9755 46.4551C65.3741 46.4551 65.7359 46.2937 65.9976 46.032C66.2592 45.7703 66.4207 45.4085 66.4207 45.0099V43.3623H69.6608C70.3384 43.3633 70.9731 43.1006 71.4515 42.6223C71.9288 42.145 72.1925 41.5092 72.1915 40.8336V39.2739H72.727C73.4037 39.2739 74.0384 39.0112 74.5167 38.5329C74.9941 38.0555 75.2578 37.4198 75.2567 36.7442V35.5463C75.2567 34.1522 74.1222 33.0176 72.727 33.0166H66.4187V16.1152H72.727C73.4241 16.1152 74.0558 15.8311 74.5137 15.3732C74.9716 14.9153 75.2547 14.2826 75.2547 13.5855V12.3876C75.2547 11.711 74.992 11.0763 74.5147 10.5989C74.0364 10.1206 73.4016 9.85789 72.726 9.85891L72.1925 9.86096Z"/></g></svg>
