<svg width="24" height="28" viewBox="0 0 24 28" fill="none" xmlns="http://www.w3.org/2000/svg">
<path fill-rule="evenodd" clip-rule="evenodd" d="M23.0495 4.99061C23.5682 4.99061 24 5.42128 24 5.96927V6.47593C24 7.01059 23.5682 7.45459 23.0495 7.45459H0.951805C0.431813 7.45459 0 7.01059 0 6.47593V5.96927C0 5.42128 0.431813 4.99061 0.951805 4.99061H4.83942C5.62913 4.99061 6.3164 4.42929 6.49406 3.63729L6.69764 2.72797C7.01405 1.48931 8.05533 0.666656 9.24703 0.666656H14.753C15.9317 0.666656 16.9847 1.48932 17.2894 2.66264L17.5072 3.63596C17.6836 4.42929 18.3709 4.99061 19.1619 4.99061H23.0495ZM21.0744 23.512C21.4803 19.7294 22.1909 10.7428 22.1909 10.6522C22.2169 10.3775 22.1274 10.1175 21.9497 9.90816C21.7591 9.71217 21.5179 9.59617 21.2521 9.59617H2.75803C2.4909 9.59617 2.23674 9.71217 2.06038 9.90816C1.88143 10.1175 1.79326 10.3775 1.80622 10.6522C1.80861 10.6688 1.8341 10.9854 1.87673 11.5146C2.06611 13.8656 2.59356 20.4136 2.93438 23.512C3.17558 25.7947 4.67331 27.2293 6.84275 27.2813C8.51683 27.32 10.2415 27.3333 12.0051 27.3333C13.6662 27.3333 15.3532 27.32 17.0792 27.2813C19.3238 27.2427 20.8203 25.8333 21.0744 23.512Z" fill="#EE373F"/>
</svg>
