<svg width="24" height="41" viewBox="0 0 24 41" fill="none" xmlns="http://www.w3.org/2000/svg">
<path fill-rule="evenodd" clip-rule="evenodd" d="M1.26874 39.9188C1.84003 40.4893 2.61444 40.8098 3.42187 40.8098C4.22929 40.8098 5.0037 40.4893 5.57499 39.9188L22.8406 22.6531C23.4112 22.0818 23.7317 21.3074 23.7317 20.5C23.7317 19.6926 23.4112 18.9182 22.8406 18.3469L5.57499 1.08127C4.99741 0.543067 4.23347 0.250067 3.44412 0.263994C2.65477 0.277921 1.90165 0.597689 1.3434 1.15593C0.785166 1.71417 0.465395 2.4673 0.451468 3.25664C0.43754 4.04599 0.730543 4.80993 1.26874 5.38752L16.3812 20.5L1.26874 35.6125C0.698164 36.1838 0.377674 36.9582 0.377674 37.7656C0.377674 38.5731 0.698164 39.3475 1.26874 39.9188Z" fill="#EE373F"/>
</svg>
