<svg width="47" height="39" viewBox="0 0 47 39" fill="none" xmlns="http://www.w3.org/2000/svg">
<path d="M18.8675 9.76387C18.8652 9.81837 18.8741 9.87276 18.8936 9.92371C18.9131 9.97465 18.9428 10.0211 18.9809 10.0601C19.019 10.0992 19.0646 10.13 19.1151 10.1507C19.1655 10.1715 19.2197 10.1817 19.2742 10.1807H20.6664C20.8993 10.1807 21.0849 9.99 21.1153 9.75881C21.2672 8.65181 22.0265 7.84519 23.3799 7.84519C24.5375 7.84519 25.5973 8.424 25.5973 9.81619C25.5973 10.8877 24.9662 11.3805 23.9689 12.1298C22.8332 12.9549 21.9337 13.9185 21.9979 15.4828L22.0029 15.849C22.0047 15.9597 22.0499 16.0653 22.1288 16.143C22.2078 16.2206 22.3141 16.2641 22.4248 16.2641H23.7934C23.9052 16.2641 24.0126 16.2197 24.0917 16.1406C24.1708 16.0614 24.2152 15.9541 24.2152 15.8422V15.6651C24.2152 14.4534 24.6759 14.1007 25.9196 13.1574C26.9473 12.3761 28.0189 11.5088 28.0189 9.68794C28.0189 7.13813 25.8656 5.90625 23.5082 5.90625C21.3701 5.90625 19.0279 6.90187 18.8675 9.76387ZM21.495 19.4889C21.495 20.3884 22.2122 21.0532 23.1994 21.0532C24.227 21.0532 24.9341 20.3884 24.9341 19.4889C24.9341 18.5574 24.2254 17.9027 23.1977 17.9027C22.2122 17.9027 21.495 18.5574 21.495 19.4889Z" fill="white"/>
<path d="M39.2907 35.7218L40.9653 35.7218C41.6896 35.7218 42.3722 35.4397 42.8847 34.9291C43.3983 34.4173 43.6803 33.7383 43.6792 33.0155L43.6792 29.5471L45.4483 29.5471C46.3064 29.5471 47 28.8562 47 28.0011C47 27.146 46.3064 26.4549 45.4483 26.4549L43.6792 26.4549L43.6792 22.9887C43.6792 21.5432 42.4161 20.2825 40.9631 20.2825L39.2885 20.2825L39.2885 19.7095C39.2896 18.265 38.0253 17.0032 36.5724 17.0032L35.2862 17.0032C33.7893 17.0032 32.5712 18.2169 32.5701 19.7095L32.5701 26.4582L14.4233 26.4582L14.4277 19.7051C14.4288 18.2148 13.2073 17.0021 11.7126 17L10.4265 17C9.70002 17 9.01736 17.2821 8.50489 17.7927C7.99135 18.3044 7.7093 18.9834 7.71037 19.7062L7.71037 20.2814L6.03574 20.2814C5.31035 20.2802 4.6277 20.5623 4.11523 21.073C3.60168 21.5847 3.31963 22.2637 3.3207 22.9865L3.3207 26.4549L1.55169 26.4549C0.693492 26.4549 -4.43495e-07 27.146 -4.80872e-07 28.0011C-4.99512e-07 28.4275 0.17329 28.8145 0.454273 29.0945C0.735256 29.3744 1.12372 29.5471 1.55169 29.5471L3.3207 29.5471L3.3207 33.0134C3.31963 33.7383 3.60168 34.4173 4.11523 34.9291C4.6277 35.4397 5.31035 35.7218 6.03574 35.7207L7.71037 35.7207L7.71037 36.2937C7.71037 37.0175 7.99242 37.6966 8.50597 38.2083C9.01854 38.719 9.70109 39.0011 10.4265 39L11.7126 39C13.2095 39 14.4277 37.7862 14.4288 36.2937L14.4288 29.545L32.5756 29.545L32.5756 36.2937C32.5756 37.0394 32.8806 37.7152 33.3723 38.205C33.8639 38.6949 34.5432 38.9978 35.2917 38.9978L36.5779 38.9978C37.3043 38.9978 37.9858 38.7167 38.4984 38.2061C39.0119 37.6944 39.294 37.0154 39.2929 36.2926L39.2907 35.7218Z" fill="white"/>
</svg>
