<svg width="164" height="236" viewBox="0 0 164 236" fill="none" xmlns="http://www.w3.org/2000/svg">
<path d="M154.838 234.151C153.281 234.704 151.724 234.982 150.169 234.982C144.496 234.982 139.169 231.455 137.128 225.816L100.286 164.38L72.6135 226.229C69.8807 233.354 61.8557 236.884 54.7299 234.151C47.6042 231.418 44.0406 223.393 46.8079 216.267L62.8928 161.577L44.1439 111.87L29.1664 126.537C29.1664 126.606 53.1391 144.282 53.1391 144.282C58.7421 147.949 60.2991 155.455 56.6324 161.024C54.315 164.588 50.4062 166.524 46.463 166.524C44.2142 166.524 41.9313 165.867 39.8901 164.552L4.1571 141.168C3.74168 140.892 3.3623 140.579 2.9812 140.269C-0.754161 136.913 -0.893207 131.033 2.08168 126.985L33.664 84.1265L39.648 81.8777L104.336 57.4211C105.338 56.9027 106.446 56.5216 107.621 56.3139C112.361 55.4487 116.477 52.958 119.418 49.4646C122.324 45.9713 124.053 41.4736 124.053 36.6312V12.1074C124.053 5.43166 129.484 0 136.161 0C142.836 0 148.268 5.43122 148.268 12.1074V36.6672C148.268 57.6991 133.428 75.7906 112.846 79.9417L134.604 137.572L134.707 137.537L163.175 216.442C165.771 223.636 162.035 231.558 154.841 234.152L154.838 234.151Z" fill="white"/>
<path d="M84.7188 34.9715C84.7188 51.506 71.2965 64.9283 54.7277 64.9283C38.159 64.9283 24.7367 51.5078 24.7367 34.9715C24.7367 18.4027 38.159 4.98047 54.7277 4.98047C71.2983 4.98047 84.7188 18.4027 84.7188 34.9715Z" fill="white"/>
</svg>
