<svg width="220" height="50" viewBox="0 0 220 50" fill="none" xmlns="http://www.w3.org/2000/svg">
<g clip-path="url(#clip0)">
<g filter="url(#filter0_d)">
<path d="M25.06 13.5559V38.0559H20.51V27.5559H7.83998V38.0559H3.28998V13.5559H7.83998V23.6709H20.51V13.5559H25.06Z" fill="white"/>
</g>
<g filter="url(#filter1_d)">
<path d="M47.7291 9.86096V8.30124C47.7291 7.62665 47.4654 6.99091 46.9881 6.51359C46.5097 6.03525 45.875 5.77258 45.1994 5.7736H41.9573V4.12597C41.9573 3.32668 41.3114 2.68073 40.5121 2.68073C39.7128 2.68073 39.0668 3.32669 39.0668 4.12597V5.7736H35.8268C34.4756 5.7736 33.2971 6.95002 33.2971 8.30328V9.863H32.7615C31.4113 9.86198 30.2318 11.0395 30.2318 12.3927V13.5906C30.2318 14.9848 31.3663 16.1193 32.7615 16.1203H39.0699V33.0217L32.7574 33.0176C31.3643 33.0166 30.2308 34.1542 30.2288 35.5463V36.7442C30.2288 37.4208 30.4925 38.0566 30.9698 38.5339C31.4481 39.0122 32.0828 39.2749 32.7584 39.2739H33.2961V40.8336C33.295 41.5092 33.5587 42.145 34.0361 42.6223C34.5144 43.1006 35.1491 43.3633 35.8247 43.3623H39.0668V45.0099C39.0668 45.8092 39.7128 46.4551 40.5121 46.4551C40.9107 46.4551 41.2725 46.2937 41.5342 46.032C41.7958 45.7703 41.9573 45.4085 41.9573 45.0099V43.3623H45.1974C45.875 43.3633 46.5097 43.1006 46.9881 42.6223C47.4654 42.145 47.7291 41.5092 47.7281 40.8336V39.2739H48.2637C48.9403 39.2739 49.575 39.0112 50.0534 38.5329C50.5307 38.0555 50.7944 37.4198 50.7934 36.7442V35.5463C50.7934 34.1522 49.6588 33.0176 48.2637 33.0166H41.9553V16.1152H48.2637C48.9607 16.1152 49.5924 15.8311 50.0503 15.3732C50.5082 14.9153 50.7913 14.2826 50.7913 13.5855V12.3876C50.7913 11.711 50.5286 11.0763 50.0513 10.5989C49.573 10.1206 48.9383 9.85789 48.2626 9.85891L47.7291 9.86096Z" fill="white"/>
</g>
<g filter="url(#filter2_d)">
<path d="M72.1925 9.86096V8.30124C72.1925 7.62665 71.9288 6.99091 71.4515 6.51359C70.9731 6.03525 70.3384 5.77258 69.6628 5.7736H66.4207V4.12597C66.4207 3.32668 65.7747 2.68073 64.9755 2.68073C64.1762 2.68073 63.5302 3.32669 63.5302 4.12597V5.7736H60.2902C58.9389 5.7736 57.7605 6.95002 57.7605 8.30328V9.863H57.2249C55.8747 9.86198 54.6952 11.0395 54.6952 12.3927V13.5906C54.6952 14.9848 55.8297 16.1193 57.2249 16.1203H63.5333V33.0217L57.2208 33.0176C55.8277 33.0166 54.6942 34.1542 54.6921 35.5463V36.7442C54.6921 37.4208 54.9558 38.0566 55.4332 38.5339C55.9115 39.0122 56.5462 39.2749 57.2218 39.2739H57.7594V40.8336C57.7584 41.5092 58.0221 42.145 58.4994 42.6223C58.9778 43.1006 59.6125 43.3633 60.2881 43.3623H63.5302V45.0099C63.5302 45.8092 64.1762 46.4551 64.9755 46.4551C65.3741 46.4551 65.7359 46.2937 65.9976 46.032C66.2592 45.7703 66.4207 45.4085 66.4207 45.0099V43.3623H69.6608C70.3384 43.3633 70.9731 43.1006 71.4515 42.6223C71.9288 42.145 72.1925 41.5092 72.1915 40.8336V39.2739H72.727C73.4037 39.2739 74.0384 39.0112 74.5167 38.5329C74.9941 38.0555 75.2578 37.4198 75.2567 36.7442V35.5463C75.2567 34.1522 74.1222 33.0176 72.727 33.0166H66.4187V16.1152H72.727C73.4241 16.1152 74.0558 15.8311 74.5137 15.3732C74.9716 14.9153 75.2547 14.2826 75.2547 13.5855V12.3876C75.2547 11.711 74.992 11.0763 74.5147 10.5989C74.0364 10.1206 73.4016 9.85789 72.726 9.85891L72.1925 9.86096Z" fill="white"/>
</g>
<g filter="url(#filter3_d)">
<path d="M91.105 37.0409C90.5917 37.4609 89.9617 37.7759 89.215 37.9859C88.4917 38.1959 87.7217 38.3009 86.905 38.3009C84.8517 38.3009 83.265 37.7642 82.145 36.6909C81.025 35.6175 80.465 34.0542 80.465 32.0009V23.0059H77.385V19.5059H80.465V15.2359H84.84V19.5059H89.845V23.0059H84.84V31.8959C84.84 32.8059 85.0617 33.5059 85.505 33.9959C85.9483 34.4625 86.59 34.6959 87.43 34.6959C88.41 34.6959 89.2267 34.4392 89.88 33.9259L91.105 37.0409Z" fill="white"/>
</g>
<g filter="url(#filter4_d)">
<path d="M127.46 19.1559C129.817 19.1559 131.683 19.8442 133.06 21.2209C134.437 22.5742 135.125 24.6159 135.125 27.3459V38.0559H130.75V27.9059C130.75 26.2725 130.388 25.0475 129.665 24.2309C128.942 23.3909 127.903 22.9709 126.55 22.9709C125.08 22.9709 123.902 23.4609 123.015 24.4409C122.128 25.3975 121.685 26.7742 121.685 28.5709V38.0559H117.31V27.9059C117.31 26.2725 116.948 25.0475 116.225 24.2309C115.502 23.3909 114.463 22.9709 113.11 22.9709C111.617 22.9709 110.427 23.4492 109.54 24.4059C108.677 25.3625 108.245 26.7509 108.245 28.5709V38.0559H103.87V19.3659H108.035V21.7459C108.735 20.9059 109.61 20.2642 110.66 19.8209C111.71 19.3775 112.877 19.1559 114.16 19.1559C115.56 19.1559 116.797 19.4242 117.87 19.9609C118.967 20.4742 119.83 21.2442 120.46 22.2709C121.23 21.2909 122.222 20.5325 123.435 19.9959C124.648 19.4359 125.99 19.1559 127.46 19.1559ZM148.556 19.1559C151.309 19.1559 153.409 19.8209 154.856 21.1509C156.326 22.4575 157.061 24.4409 157.061 27.1009V38.0559H152.931V35.7809C152.394 36.5975 151.624 37.2275 150.621 37.6709C149.641 38.0909 148.451 38.3009 147.051 38.3009C145.651 38.3009 144.426 38.0675 143.376 37.6009C142.326 37.1109 141.509 36.4459 140.926 35.6059C140.366 34.7425 140.086 33.7742 140.086 32.7009C140.086 31.0209 140.704 29.6792 141.941 28.6759C143.201 27.6492 145.172 27.1359 147.856 27.1359H152.686V26.8559C152.686 25.5492 152.289 24.5459 151.496 23.8459C150.726 23.1459 149.571 22.7959 148.031 22.7959C146.981 22.7959 145.942 22.9592 144.916 23.2859C143.912 23.6125 143.061 24.0675 142.361 24.6509L140.646 21.4659C141.626 20.7192 142.804 20.1475 144.181 19.7509C145.557 19.3542 147.016 19.1559 148.556 19.1559ZM147.961 35.1159C149.057 35.1159 150.026 34.8709 150.866 34.3809C151.729 33.8675 152.336 33.1442 152.686 32.2109V30.0409H148.171C145.651 30.0409 144.391 30.8692 144.391 32.5259C144.391 33.3192 144.706 33.9492 145.336 34.4159C145.966 34.8825 146.841 35.1159 147.961 35.1159ZM171.005 30.0409L167.75 33.1209V38.0559H163.375V12.0859H167.75V27.7659L176.815 19.3659H182.065L174.26 27.2059L182.8 38.0559H177.48L171.005 30.0409ZM203.11 28.8159C203.11 29.1192 203.087 29.5509 203.04 30.1109H188.375C188.632 31.4875 189.297 32.5842 190.37 33.4009C191.467 34.1942 192.82 34.5909 194.43 34.5909C196.484 34.5909 198.175 33.9142 199.505 32.5609L201.85 35.2559C201.01 36.2592 199.949 37.0175 198.665 37.5309C197.382 38.0442 195.935 38.3009 194.325 38.3009C192.272 38.3009 190.464 37.8925 188.9 37.0759C187.337 36.2592 186.124 35.1275 185.26 33.6809C184.42 32.2109 184 30.5542 184 28.7109C184 26.8909 184.409 25.2575 185.225 23.8109C186.065 22.3409 187.22 21.1975 188.69 20.3809C190.16 19.5642 191.817 19.1559 193.66 19.1559C195.48 19.1559 197.102 19.5642 198.525 20.3809C199.972 21.1742 201.092 22.3059 201.885 23.7759C202.702 25.2225 203.11 26.9025 203.11 28.8159ZM193.66 22.6559C192.26 22.6559 191.07 23.0759 190.09 23.9159C189.134 24.7325 188.55 25.8292 188.34 27.2059H198.945C198.759 25.8525 198.187 24.7559 197.23 23.9159C196.274 23.0759 195.084 22.6559 193.66 22.6559ZM212.178 22.0959C213.438 20.1359 215.654 19.1559 218.828 19.1559V23.3209C218.454 23.2509 218.116 23.2159 217.813 23.2159C216.109 23.2159 214.779 23.7175 213.823 24.7209C212.866 25.7009 212.388 27.1242 212.388 28.9909V38.0559H208.013V19.3659H212.178V22.0959Z" fill="white"/>
</g>
</g>
<defs>
<filter id="filter0_d" x="-0.710022" y="10.5559" width="29.77" height="32.5" filterUnits="userSpaceOnUse" color-interpolation-filters="sRGB">
<feFlood flood-opacity="0" result="BackgroundImageFix"/>
<feColorMatrix in="SourceAlpha" type="matrix" values="0 0 0 0 0 0 0 0 0 0 0 0 0 0 0 0 0 0 127 0"/>
<feOffset dy="1"/>
<feGaussianBlur stdDeviation="2"/>
<feColorMatrix type="matrix" values="0 0 0 0 0 0 0 0 0 0 0 0 0 0 0 0 0 0 0.25 0"/>
<feBlend mode="normal" in2="BackgroundImageFix" result="effect1_dropShadow"/>
<feBlend mode="normal" in="SourceGraphic" in2="effect1_dropShadow" result="shape"/>
</filter>
<filter id="filter1_d" x="26.2288" y="-0.319275" width="28.5646" height="51.7744" filterUnits="userSpaceOnUse" color-interpolation-filters="sRGB">
<feFlood flood-opacity="0" result="BackgroundImageFix"/>
<feColorMatrix in="SourceAlpha" type="matrix" values="0 0 0 0 0 0 0 0 0 0 0 0 0 0 0 0 0 0 127 0"/>
<feOffset dy="1"/>
<feGaussianBlur stdDeviation="2"/>
<feColorMatrix type="matrix" values="0 0 0 0 0 0 0 0 0 0 0 0 0 0 0 0 0 0 0.25 0"/>
<feBlend mode="normal" in2="BackgroundImageFix" result="effect1_dropShadow"/>
<feBlend mode="normal" in="SourceGraphic" in2="effect1_dropShadow" result="shape"/>
</filter>
<filter id="filter2_d" x="50.6921" y="-0.319275" width="28.5646" height="51.7744" filterUnits="userSpaceOnUse" color-interpolation-filters="sRGB">
<feFlood flood-opacity="0" result="BackgroundImageFix"/>
<feColorMatrix in="SourceAlpha" type="matrix" values="0 0 0 0 0 0 0 0 0 0 0 0 0 0 0 0 0 0 127 0"/>
<feOffset dy="1"/>
<feGaussianBlur stdDeviation="2"/>
<feColorMatrix type="matrix" values="0 0 0 0 0 0 0 0 0 0 0 0 0 0 0 0 0 0 0.25 0"/>
<feBlend mode="normal" in2="BackgroundImageFix" result="effect1_dropShadow"/>
<feBlend mode="normal" in="SourceGraphic" in2="effect1_dropShadow" result="shape"/>
</filter>
<filter id="filter3_d" x="73.385" y="12.2359" width="21.72" height="31.065" filterUnits="userSpaceOnUse" color-interpolation-filters="sRGB">
<feFlood flood-opacity="0" result="BackgroundImageFix"/>
<feColorMatrix in="SourceAlpha" type="matrix" values="0 0 0 0 0 0 0 0 0 0 0 0 0 0 0 0 0 0 127 0"/>
<feOffset dy="1"/>
<feGaussianBlur stdDeviation="2"/>
<feColorMatrix type="matrix" values="0 0 0 0 0 0 0 0 0 0 0 0 0 0 0 0 0 0 0.25 0"/>
<feBlend mode="normal" in2="BackgroundImageFix" result="effect1_dropShadow"/>
<feBlend mode="normal" in="SourceGraphic" in2="effect1_dropShadow" result="shape"/>
</filter>
<filter id="filter4_d" x="99.87" y="9.08591" width="122.958" height="34.215" filterUnits="userSpaceOnUse" color-interpolation-filters="sRGB">
<feFlood flood-opacity="0" result="BackgroundImageFix"/>
<feColorMatrix in="SourceAlpha" type="matrix" values="0 0 0 0 0 0 0 0 0 0 0 0 0 0 0 0 0 0 127 0"/>
<feOffset dy="1"/>
<feGaussianBlur stdDeviation="2"/>
<feColorMatrix type="matrix" values="0 0 0 0 0 0 0 0 0 0 0 0 0 0 0 0 0 0 0.25 0"/>
<feBlend mode="normal" in2="BackgroundImageFix" result="effect1_dropShadow"/>
<feBlend mode="normal" in="SourceGraphic" in2="effect1_dropShadow" result="shape"/>
</filter>
<clipPath id="clip0">
<rect width="220" height="50" fill="white"/>
</clipPath>
</defs>
</svg>
