<svg width="22" height="45" viewBox="0 0 22 45" fill="none" xmlns="http://www.w3.org/2000/svg">
<path d="M18.1925 7.86096V6.30124C18.1925 5.62665 17.9288 4.99091 17.4515 4.51359C16.9731 4.03525 16.3384 3.77258 15.6628 3.7736H12.4207V2.12597C12.4207 1.32668 11.7747 0.680725 10.9755 0.680725C10.1762 0.680725 9.53018 1.32669 9.53018 2.12597V3.7736H6.29018C4.93888 3.7736 3.76048 4.95002 3.76048 6.30328V7.863H3.22488C1.87468 7.86198 0.695179 9.03948 0.695179 10.3927V11.5906C0.695179 12.9848 1.82968 14.1193 3.22488 14.1203H9.53328V31.0217L3.22078 31.0176C1.82768 31.0166 0.694178 32.1542 0.692078 33.5463V34.7442C0.692078 35.4208 0.955778 36.0566 1.43318 36.5339C1.91148 37.0122 2.54618 37.2749 3.22178 37.2739H3.75938V38.8336C3.75838 39.5092 4.02208 40.145 4.49938 40.6223C4.97778 41.1006 5.61248 41.3633 6.28808 41.3623H9.53018V43.0099C9.53018 43.8092 10.1762 44.4551 10.9755 44.4551C11.3741 44.4551 11.7359 44.2937 11.9976 44.032C12.2592 43.7703 12.4207 43.4085 12.4207 43.0099V41.3623H15.6608C16.3384 41.3633 16.9731 41.1006 17.4515 40.6223C17.9288 40.145 18.1925 39.5092 18.1915 38.8336V37.2739H18.727C19.4037 37.2739 20.0384 37.0112 20.5167 36.5329C20.9941 36.0555 21.2578 35.4198 21.2567 34.7442V33.5463C21.2567 32.1522 20.1222 31.0176 18.727 31.0166H12.4187V14.1152H18.727C19.4241 14.1152 20.0558 13.8311 20.5137 13.3732C20.9716 12.9153 21.2547 12.2826 21.2547 11.5855V10.3876C21.2547 9.71099 20.992 9.07628 20.5147 8.59888C20.0364 8.12058 19.4016 7.85789 18.726 7.85891L18.1925 7.86096Z" fill="white"/>
</svg>
