<svg width="21" height="15" viewBox="0 0 21 15" fill="none" xmlns="http://www.w3.org/2000/svg">
<path d="M14.8265 5.70286L14.8597 5.71306C15.7883 5.99758 16.9771 6.4844 17.4537 7.71134L17.4817 7.76637L17.4932 7.85036C17.5366 8.16977 17.6356 8.71219 17.8473 9.27439C18.0399 9.78609 18.3139 10.282 18.6954 10.6479L20.2899 10.399C20.5566 9.85797 20.5374 9.44315 20.4089 9.07992C20.2518 8.63594 19.9208 8.22983 19.5183 7.74671L19.8816 7.44407L19.5183 7.7467L19.4925 7.71572C19.1597 7.31645 18.7832 6.86467 18.5765 6.34948L18.5763 6.34898C18.3927 5.88997 18.3502 5.37181 18.3156 4.95099L18.3138 4.929C18.2555 4.24381 18.1978 3.73031 17.8723 3.33339L17.8721 3.33313C17.7249 3.15341 17.4547 2.93372 17.1323 2.73007C16.8136 2.52872 16.4897 2.37183 16.263 2.29835C16.0085 2.21592 15.7268 2.20039 15.4401 2.20039C15.3537 2.20039 15.2666 2.20146 15.1773 2.20333L15.173 2.20342C15.1484 2.2037 15.1228 2.20408 15.0965 2.20447C15.0307 2.20544 14.9606 2.20648 14.8924 2.20648C14.3829 2.20648 13.8677 2.15862 13.3791 1.84686C13.0998 1.66875 12.88 1.43746 12.6959 1.24386L12.6806 1.22772L12.68 1.2271C12.5049 1.04235 12.3471 0.878435 12.1712 0.756391L12.1703 0.755759C11.9331 0.590398 11.6399 0.553386 11.1997 0.513641L11.1996 0.513634C11.1109 0.50561 10.8209 0.499952 10.4996 0.5C10.1783 0.500048 9.88824 0.505802 9.79923 0.513957L9.79879 0.513997C9.35981 0.553827 9.06693 0.590432 8.82925 0.755921L8.82913 0.75601C8.65482 0.877293 8.50416 1.03352 8.31921 1.2277C8.31912 1.2278 8.31902 1.2279 8.31893 1.22799L8.30621 1.2414C8.12185 1.43576 7.90151 1.66803 7.62111 1.84686L7.62103 1.84692C7.13222 2.15853 6.61799 2.20648 6.10814 2.20648C6.04147 2.20648 5.97178 2.20547 5.90538 2.2045C5.87778 2.2041 5.85075 2.20371 5.82474 2.2034L5.81998 2.20334L5.81998 2.20332C5.73315 2.20146 5.64615 2.20039 5.5597 2.20039C5.27378 2.20039 4.99172 2.21592 4.73717 2.29835C4.51047 2.37184 4.18648 2.52875 3.86772 2.73008C3.54526 2.93376 3.27515 3.15338 3.12824 3.33295L3.12775 3.33355C2.80213 3.73027 2.74389 4.24511 2.68608 4.93303L14.8265 5.70286ZM14.8265 5.70286L14.8181 5.63634L14.4385 5.5835C14.4375 5.58336 14.4365 5.58322 14.4355 5.58308M14.8265 5.70286L14.4355 5.58308M14.4355 5.58308L14.3009 5.54182C14.1778 5.48558 14.0353 5.37251 13.8699 5.17761C13.6431 4.91042 13.4355 4.5654 13.2157 4.19743L13.2155 4.19721L13.2094 4.18693C13.0913 3.98947 12.9456 3.7458 12.8039 3.54835C12.7322 3.44855 12.6494 3.34323 12.5603 3.25658C12.493 3.19107 12.3325 3.04408 12.104 3.02099L12.104 3.02097L12.0991 3.02052L12.0978 3.0204C12.0901 3.01967 12.0609 3.01691 12.0285 3.01691C11.7755 3.01691 11.5694 3.14553 11.4286 3.2633C11.115 3.52375 10.8474 3.96764 10.6554 4.40401C10.6128 4.50075 10.5723 4.6008 10.5346 4.7029C10.497 4.60101 10.4566 4.50116 10.4142 4.40459C10.2222 3.96826 9.95494 3.52442 9.6414 3.26378C9.49042 3.13811 9.25008 2.99067 8.96331 3.02152C8.74072 3.0449 8.58372 3.18403 8.51375 3.25105C8.42443 3.3366 8.34217 3.44057 8.27104 3.53926C8.12943 3.73574 7.98252 3.98172 7.8582 4.18988L7.85463 4.19586C7.85461 4.19589 7.85459 4.19593 7.85457 4.19596C7.62543 4.57901 7.41041 4.93545 7.17549 5.205C7.09153 5.30133 7.01399 5.376 6.94218 5.43273L6.39924 5.59894L6.20102 5.61098L6.19264 5.66218L6.14478 5.67683C5.2099 5.96302 4.0097 6.45418 3.54024 7.70213L3.53399 7.71874L3.52893 7.73576L3.5278 7.73955L3.51685 7.77643L3.51166 7.81455C3.4682 8.13388 3.36913 8.67621 3.15742 9.23827C2.96411 9.75149 2.68897 10.2488 2.30575 10.6148L0.707579 10.3942C0.443552 9.85588 0.463011 9.44256 0.591129 9.08033C0.748185 8.63628 1.07913 8.22997 1.48154 7.74672L14.4355 5.58308ZM2.6834 4.96532C2.6491 5.37912 2.60644 5.89381 2.42321 6.34976C2.21629 6.86523 1.84055 7.31601 1.508 7.71498C1.49917 7.72556 1.49038 7.73611 1.48162 7.74663L2.6834 4.96532ZM2.6834 4.96532C2.6843 4.9545 2.68519 4.94375 2.68608 4.93307L2.6834 4.96532ZM7.49492 11.3059C7.56002 10.9931 7.57171 10.6469 7.49761 10.2522C7.70213 10.4023 7.88677 10.5467 8.02028 10.6809L8.34296 11.0053L8.69462 10.7125C9.35266 10.1648 9.88987 9.16442 10.2481 8.25732C10.3579 7.97935 10.4544 7.70129 10.5348 7.43508C10.6152 7.70115 10.7116 7.97905 10.8213 8.25687C11.1794 9.16395 11.7164 10.1644 12.3745 10.7122L12.7261 11.0048L13.0488 10.6806C13.1678 10.561 13.3271 10.4334 13.5048 10.3012C13.4348 10.6897 13.4461 11.0303 13.5092 11.3383C13.5879 11.7228 13.7443 12.0342 13.8641 12.2728L13.8711 12.2867C13.8711 12.2867 13.8711 12.2867 13.8711 12.2867C14.0963 12.7358 14.1524 12.9429 14.0787 13.1716C13.9929 13.4376 13.6933 13.8427 12.8049 14.4988L8.20272 14.465C7.31177 13.8075 7.01148 13.4018 6.92557 13.1354C6.85183 12.9068 6.90793 12.6999 7.13289 12.2512L7.13305 12.2509L7.14097 12.2351C7.26027 11.9968 7.41575 11.6863 7.49492 11.3059Z" stroke="white"/>
<path d="M7.29241 5.62859L8.3258 3.97336C8.72165 3.33931 9.65858 3.3819 9.99526 4.04926L10.194 4.3411C10.4421 4.70541 10.6073 5.11972 10.6779 5.55481C10.7339 5.9004 10.7293 6.25311 10.6642 6.59712L10.6438 6.70471C10.5952 6.96156 10.5191 7.21243 10.4167 7.45295L10.3023 7.72174C10.0984 8.20078 9.83621 8.65287 9.52172 9.06779L8.92507 9.85494L8.8443 9.98577C8.59323 10.3555 8.10063 10.471 7.71139 10.2514L7.50152 10.133L7.05487 9.89687C6.71833 9.71898 6.43037 9.46151 6.21608 9.14688L6.16903 9.07779C6.03547 8.88169 5.93995 8.66225 5.88742 8.43088C5.81383 8.10672 5.82684 7.7689 5.92514 7.45136L6.21568 6.51287C6.29906 6.24353 6.52064 6.0397 6.79599 5.97906C7.00185 5.93372 7.18078 5.8074 7.29241 5.62859Z" fill="white"/>
<path d="M7.29241 5.62859L8.3258 3.97336C8.72165 3.33931 9.65858 3.3819 9.99526 4.04926L10.194 4.3411C10.4421 4.70541 10.6073 5.11972 10.6779 5.55481C10.7339 5.9004 10.7293 6.25311 10.6642 6.59712L10.6438 6.70471C10.5952 6.96156 10.5191 7.21243 10.4167 7.45295L10.3023 7.72174C10.0984 8.20078 9.83621 8.65287 9.52172 9.06779L8.92507 9.85494L8.8443 9.98577C8.59323 10.3555 8.10063 10.471 7.71139 10.2514L7.50152 10.133L7.05487 9.89687C6.71833 9.71898 6.43037 9.46151 6.21608 9.14688L6.16903 9.07779C6.03547 8.88169 5.93995 8.66225 5.88742 8.43088C5.81383 8.10672 5.82684 7.7689 5.92514 7.45136L6.21568 6.51287C6.29906 6.24353 6.52064 6.0397 6.79599 5.97906C7.00185 5.93372 7.18078 5.8074 7.29241 5.62859Z" fill="white"/>
<path d="M7.29241 5.62859L8.3258 3.97336C8.72165 3.33931 9.65858 3.3819 9.99526 4.04926L10.194 4.3411C10.4421 4.70541 10.6073 5.11972 10.6779 5.55481C10.7339 5.9004 10.7293 6.25311 10.6642 6.59712L10.6438 6.70471C10.5952 6.96156 10.5191 7.21243 10.4167 7.45295L10.3023 7.72174C10.0984 8.20078 9.83621 8.65287 9.52172 9.06779L8.92507 9.85494L8.8443 9.98577C8.59323 10.3555 8.10063 10.471 7.71139 10.2514L7.50152 10.133L7.05487 9.89687C6.71833 9.71898 6.43037 9.46151 6.21608 9.14688L6.16903 9.07779C6.03547 8.88169 5.93995 8.66225 5.88742 8.43088C5.81383 8.10672 5.82684 7.7689 5.92514 7.45136L6.21568 6.51287C6.29906 6.24353 6.52064 6.0397 6.79599 5.97906C7.00185 5.93372 7.18078 5.8074 7.29241 5.62859Z" fill="white"/>
<path d="M13.7106 5.5601L12.6764 3.85023C12.286 3.20474 11.336 3.24722 11.0048 3.92497L10.8109 4.21887C10.5594 4.59998 10.3927 5.03058 10.3218 5.48163C10.266 5.83685 10.2706 6.19894 10.3354 6.55262L10.356 6.66479C10.4047 6.93082 10.4813 7.191 10.5844 7.44104L10.6963 7.7123C10.9012 8.20926 11.1656 8.67953 11.4838 9.11282L12.075 9.91793L12.1558 10.053C12.4049 10.4317 12.9067 10.5496 13.2984 10.3215L13.4985 10.2049L13.9319 9.96845C14.2772 9.78008 14.5709 9.50994 14.7875 9.18169L14.8282 9.12004C14.9637 8.91468 15.0602 8.68615 15.1131 8.44586C15.1865 8.11225 15.1735 7.76544 15.0754 7.43825L14.7803 6.45437C14.6995 6.18489 14.4799 5.97973 14.2055 5.91735C13.9989 5.87038 13.8202 5.74142 13.7106 5.5601Z" fill="white"/>
</svg>
