<svg width="14" height="14" viewBox="0 0 14 14" fill="none" xmlns="http://www.w3.org/2000/svg">
<path fill-rule="evenodd" clip-rule="evenodd" d="M0.579987 0.579986C0.790925 0.369311 1.07686 0.250976 1.37499 0.250976C1.67311 0.250976 1.95905 0.369311 2.16999 0.579986L6.99999 5.40999L11.83 0.579986C11.933 0.469456 12.0572 0.380803 12.1952 0.319315C12.3332 0.257827 12.4821 0.224764 12.6332 0.222099C12.7843 0.219434 12.9343 0.247221 13.0744 0.303802C13.2145 0.360384 13.3417 0.444601 13.4485 0.551429C13.5554 0.658257 13.6396 0.785508 13.6962 0.92559C13.7528 1.06567 13.7805 1.21572 13.7779 1.36677C13.7752 1.51782 13.7421 1.66679 13.6807 1.80479C13.6192 1.94279 13.5305 2.06699 13.42 2.16999L8.58999 6.99999L13.42 11.83C13.5305 11.933 13.6192 12.0572 13.6807 12.1952C13.7421 12.3332 13.7752 12.4821 13.7779 12.6332C13.7805 12.7843 13.7528 12.9343 13.6962 13.0744C13.6396 13.2145 13.5554 13.3417 13.4485 13.4485C13.3417 13.5554 13.2145 13.6396 13.0744 13.6962C12.9343 13.7528 12.7843 13.7805 12.6332 13.7779C12.4821 13.7752 12.3332 13.7421 12.1952 13.6807C12.0572 13.6192 11.933 13.5305 11.83 13.42L6.99999 8.58999L2.16999 13.42C1.95672 13.6187 1.67465 13.7269 1.3832 13.7217C1.09175 13.7166 0.813674 13.5985 0.607554 13.3924C0.401435 13.1863 0.283367 12.9082 0.278224 12.6168C0.273082 12.3253 0.381267 12.0432 0.579987 11.83L5.40999 6.99999L0.579987 2.16999C0.369311 1.95905 0.250977 1.67311 0.250977 1.37499C0.250977 1.07686 0.369311 0.790924 0.579987 0.579986Z" fill="#282828"/>
</svg>
