<svg width="16" height="16" viewBox="0 0 16 16" fill="none" xmlns="http://www.w3.org/2000/svg">
<path d="M6.26562 0.499997C5.81563 0.574997 5.29063 0.874997 4.76562 1.25C3.19063 1.4 1.10938 2.45468 1.10938 4.92968C1.10938 5.52969 1.10469 5.82968 1.17969 6.05468C0.879687 6.42968 0.5 7.17969 0.5 8.67968C0.5 9.05468 0.715625 9.41562 1.01562 9.64062L2.82031 10.625C2.97031 10.7 3.20469 10.7656 3.42969 10.7656C3.50469 10.7656 3.73438 10.3906 3.73438 10.3906V11C3.73438 11.225 3.64062 11.3656 3.64062 11.5156C3.56562 11.8156 3.57031 12.05 3.57031 12.5C3.57031 13.7 4.85938 14.7453 5.60938 15.1953C5.83437 15.4203 6.04063 15.5 6.26562 15.5H9.73438C9.95938 15.5 10.1656 15.4156 10.3906 15.2656C11.1406 14.7406 12.3594 13.6953 12.3594 12.5703C12.3594 12.1203 12.3406 11.9094 12.2656 11.6094C12.2656 11.4594 12.1953 11.2953 12.1953 11.0703V10.4844C12.1953 10.4844 12.425 10.8594 12.5 10.8594C12.725 10.8594 12.8844 10.7703 13.1094 10.6953L14.8906 9.73437C15.2656 9.50937 15.4297 9.125 15.4297 8.75C15.5047 7.175 15.1203 6.42968 14.8203 6.05468C14.8203 5.82968 14.8906 5.52969 14.8906 4.92968C14.8906 2.45468 12.8094 1.4 11.2344 1.25C10.7094 0.874997 10.1844 0.645309 9.73438 0.570309H9.5H6.5C6.425 0.495309 6.34062 0.499997 6.26562 0.499997ZM6.42969 1.69531H9.42969C9.72969 1.77031 10.1094 1.93437 10.4844 2.23437L10.6953 2.375H11C11.3 2.375 13.625 2.67968 13.625 4.92968C13.625 5.37968 13.6297 5.66562 13.5547 5.89062L13.4844 6.26562L13.6953 6.57031C13.8453 6.79531 14.1406 7.32969 14.1406 8.67968L12.9453 9.5C12.1203 9.425 11.9 8.29531 11.75 8.07031C11.6 9.64531 11.1406 10.3906 11.1406 10.3906V11.2344C11.1406 11.4594 11.2344 11.6 11.2344 11.75C11.2344 12.05 11.3047 12.1953 11.3047 12.5703C11.3047 13.0203 10.7047 13.775 9.80469 14.375H6.35938C5.45937 13.775 4.85938 13.0203 4.85938 12.5703C4.85938 12.1953 4.85469 12.05 4.92969 11.75C4.92969 11.6 5 11.4594 5 11.2344V10.3906C5 10.3906 4.32031 9.57031 4.32031 8.07031C3.87031 8.82031 3.125 9.5 3.125 9.5L1.69531 8.75C1.69531 7.475 2.06562 6.88437 2.14062 6.73437L2.375 6.42968L2.30469 5.89062C2.30469 5.66562 2.23438 5.30468 2.23438 4.92968C2.23438 2.67968 4.63438 2.375 4.85938 2.375H5.14062L5.375 2.23437C5.75 1.93437 6.12969 1.77031 6.42969 1.69531ZM5.89062 3.24218C5.5625 3.33037 5.4125 4.33906 4.625 4.92968C4.25 5.22968 3.64062 5.67968 3.64062 5.67968C3.64062 5.67968 3.88438 6.64531 4.10938 6.94531C4.55937 7.92031 5 8 6.125 8C7.1 8 8 7.62031 8 6.94531C8 7.62031 8.9 8 9.875 8C11 8 11.3844 7.92031 11.9844 6.94531C12.1344 6.57031 12.4297 5.67968 12.4297 5.67968C12.4297 5.67968 11.825 5.15468 11.375 4.92968C10.475 4.25468 10.4047 3.04062 9.80469 3.26562C8.22969 3.94062 8.30469 4.48437 7.92969 4.48437C7.55469 4.48437 7.62969 3.94062 6.05469 3.26562C5.99844 3.2375 5.9375 3.22959 5.89062 3.24218Z" fill="white"/>
</svg>
