<svg width="15" height="15" viewBox="0 0 15 15" fill="none" xmlns="http://www.w3.org/2000/svg">
<path d="M5.78909 5.78703e-05C5.33726 0.0750576 4.81013 0.375056 4.28299 0.750055C2.70158 0.900054 0.611855 1.95474 0.611855 4.42973C0.611855 5.02973 0.607149 5.32972 0.682454 5.55472C0.381233 5.92972 0 6.67972 0 8.17971C0 8.55471 0.216503 8.91565 0.517724 9.14065L2.32976 10.125C2.48037 10.2 2.7157 10.2656 2.94161 10.2656C3.01692 10.2656 3.24754 9.89064 3.24754 9.89064V10.5C3.24754 10.725 3.15341 10.8656 3.15341 11.0156C3.0781 11.3156 3.08281 11.55 3.08281 12C3.08281 13.2 4.37712 14.2453 5.13017 14.6953C5.35609 14.9203 5.56318 15 5.78909 15H9.27196C9.49788 15 9.70497 14.9156 9.93088 14.7656C10.6839 14.2406 11.9076 13.1953 11.9076 12.0703C11.9076 11.6203 11.8888 11.4094 11.8135 11.1094C11.8135 10.9594 11.7429 10.7953 11.7429 10.5703V9.98439C11.7429 9.98439 11.9735 10.3594 12.0488 10.3594C12.2748 10.3594 12.4348 10.2703 12.6607 10.1953L14.4492 9.2344C14.8257 9.0094 14.9905 8.62502 14.9905 8.25003C15.0658 6.67503 14.6798 5.92972 14.3786 5.55472C14.3786 5.32972 14.4492 5.02973 14.4492 4.42973C14.4492 1.95474 12.3595 0.900054 10.7781 0.750055C10.2509 0.375056 9.72379 0.14537 9.27196 0.0703701H6.02442C5.94912 -0.00462961 5.8644 5.78703e-05 5.78909 5.78703e-05ZM5.95382 1.19537H8.96604C9.26726 1.27037 9.64849 1.43443 10.025 1.73443L10.2368 1.87505H10.5427C10.844 1.87505 13.1784 2.17974 13.1784 4.42973C13.1784 4.87973 13.1831 5.16566 13.1078 5.39066L13.0372 5.76566L13.249 6.07035C13.3996 6.29535 13.6961 6.82972 13.6961 8.17971L12.496 9.00002C11.6676 8.92502 11.4464 7.79534 11.2958 7.57034C11.1452 9.14533 10.6839 9.89064 10.6839 9.89064V10.7344C10.6839 10.9594 10.7781 11.1 10.7781 11.25C10.7781 11.55 10.8487 11.6953 10.8487 12.0703C10.8487 12.5203 10.2462 13.275 9.34256 13.875H5.88323C4.97956 13.275 4.37712 12.5203 4.37712 12.0703C4.37712 11.6953 4.37241 11.55 4.44772 11.25C4.44772 11.1 4.51832 10.9594 4.51832 10.7344V9.89064C4.51832 9.89064 3.83586 9.07034 3.83586 7.57034C3.38403 8.32034 2.63568 9.00002 2.63568 9.00002L1.20018 8.25003C1.20018 6.97503 1.572 6.38441 1.6473 6.23441L1.88263 5.92972L1.81203 5.39066C1.81203 5.16566 1.74143 4.80473 1.74143 4.42973C1.74143 2.17974 4.1512 1.87505 4.37712 1.87505H4.65951L4.89484 1.73443C5.27137 1.43443 5.6526 1.27037 5.95382 1.19537Z" fill="white"/>
<path d="M5.10641 8.89057C5.10641 8.56323 5.37538 8.29787 5.70716 8.29787H6.90866C7.24045 8.29787 7.50941 8.56323 7.50941 8.89057C7.50941 9.21791 7.24045 9.48328 6.90866 9.48328H5.70716C5.37538 9.48328 5.10641 9.21791 5.10641 8.89057Z" fill="white"/>
<path d="M7.80979 8.89057C7.80979 8.56323 8.07876 8.29787 8.41054 8.29787H9.61204C9.94383 8.29787 10.2128 8.56323 10.2128 8.89057C10.2128 9.21791 9.94383 9.48328 9.61204 9.48328H8.41054C8.07876 9.48328 7.80979 9.21791 7.80979 8.89057Z" fill="white"/>
<path d="M5.10641 10.3723C5.10641 10.045 5.37538 9.77963 5.70716 9.77963H6.90866C7.24045 9.77963 7.50941 10.045 7.50941 10.3723C7.50941 10.6997 7.24045 10.965 6.90866 10.965H5.70716C5.37538 10.965 5.10641 10.6997 5.10641 10.3723Z" fill="white"/>
<path d="M7.80979 10.3723C7.80979 10.045 8.07876 9.77963 8.41054 9.77963H9.61204C9.94383 9.77963 10.2128 10.045 10.2128 10.3723C10.2128 10.6997 9.94383 10.965 9.61204 10.965H8.41054C8.07876 10.965 7.80979 10.6997 7.80979 10.3723Z" fill="white"/>
<path d="M5.10641 11.8541C5.10641 11.5268 5.37538 11.2614 5.70716 11.2614H6.90866C7.24045 11.2614 7.50941 11.5268 7.50941 11.8541C7.50941 12.1814 7.24045 12.4468 6.90866 12.4468H5.70716C5.37538 12.4468 5.10641 12.1814 5.10641 11.8541Z" fill="white"/>
<path d="M7.80979 11.8541C7.80979 11.5268 8.07876 11.2614 8.41054 11.2614H9.61204C9.94383 11.2614 10.2128 11.5268 10.2128 11.8541C10.2128 12.1814 9.94383 12.4468 9.61204 12.4468H8.41054C8.07876 12.4468 7.80979 12.1814 7.80979 11.8541Z" fill="white"/>
</svg>
