<svg width="32" height="31" viewBox="0 0 32 31" fill="none" xmlns="http://www.w3.org/2000/svg">
<g filter="url(#filter0_d)">
<g clip-path="url(#clip0)">
<path d="M16 3.47916C9.37 3.47916 4 8.53916 4 14.7798C4 19.7737 7.438 24.0086 12.205 25.5017C12.805 25.608 13.025 25.2582 13.025 24.9583C13.025 24.6899 13.015 23.9789 13.01 23.0368C9.672 23.7182 8.968 21.5207 8.968 21.5207C8.422 20.2164 7.633 19.8676 7.633 19.8676C6.546 19.1671 7.717 19.1814 7.717 19.1814C8.922 19.26 9.555 20.3458 9.555 20.3458C10.625 22.0737 12.364 21.5744 13.05 21.2859C13.158 20.5547 13.467 20.0574 13.81 19.7747C11.145 19.4919 8.344 18.5202 8.344 14.1904C8.344 12.9571 8.809 11.9489 9.579 11.1583C9.444 10.8727 9.039 9.72366 9.684 8.16732C9.684 8.16732 10.689 7.86449 12.984 9.32595C13.944 9.07486 14.964 8.95028 15.984 8.94453C17.004 8.95028 18.024 9.07486 18.984 9.32595C21.264 7.86449 22.269 8.16732 22.269 8.16732C22.914 9.72366 22.509 10.8727 22.389 11.1583C23.154 11.9489 23.619 12.9571 23.619 14.1904C23.619 18.5317 20.814 19.4872 18.144 19.7651C18.564 20.1043 18.954 20.7972 18.954 21.8562C18.954 23.3684 18.939 24.5836 18.939 24.9506C18.939 25.2467 19.149 25.6004 19.764 25.4873C24.565 24.0038 28 19.766 28 14.7798C28 8.53916 22.627 3.47916 16 3.47916Z" fill="white"/>
</g>
</g>
<defs>
<filter id="filter0_d" x="0" y="0" width="32" height="31" filterUnits="userSpaceOnUse" color-interpolation-filters="sRGB">
<feFlood flood-opacity="0" result="BackgroundImageFix"/>
<feColorMatrix in="SourceAlpha" type="matrix" values="0 0 0 0 0 0 0 0 0 0 0 0 0 0 0 0 0 0 127 0"/>
<feOffset dy="1"/>
<feGaussianBlur stdDeviation="2"/>
<feColorMatrix type="matrix" values="0 0 0 0 0 0 0 0 0 0 0 0 0 0 0 0 0 0 0.25 0"/>
<feBlend mode="normal" in2="BackgroundImageFix" result="effect1_dropShadow"/>
<feBlend mode="normal" in="SourceGraphic" in2="effect1_dropShadow" result="shape"/>
</filter>
<clipPath id="clip0">
<rect width="24" height="23" fill="white" transform="translate(4 3)"/>
</clipPath>
</defs>
</svg>
