<svg width="10" height="16" viewBox="0 0 10 16" fill="none" xmlns="http://www.w3.org/2000/svg">
<path d="M4.002 0C3.16894 0.72 2.08597 2.56 1.83605 3.84C1.16961 4.56 1.16961 5.28 1.66944 6.08C2.00267 6.72 1.91936 7.44 2.08597 8.24C2.25258 8.88 2.5858 9.52 2.83572 10.16C3.33555 11.52 3.83539 13.12 3.50217 13.84C3.08564 14.56 2.5858 14.4 1.91936 14.72C1.25292 14.96 0.836388 15.12 0.586471 15.2C-0.0799735 15.28 0.00333224 15.36 0.00333224 15.44C0.00333224 15.76 0.253249 16 0.586471 16C0.753082 16 0.919694 15.92 1.0863 15.84C1.25292 16 1.41953 16 1.66944 16C3.50217 16 3.41886 15.84 4.16861 15.84C4.41853 15.84 5.00167 16 5.66811 16C6.33456 16 6.58447 15.52 6.58447 15.12C6.58447 14.4 5.91803 14 5.58481 11.92C5.25158 9.76 6.00133 8.32 5.83472 7.44C5.58481 6 4.58514 5.52 4.66844 5.28C4.75175 5.04 5.08497 4.56 5.66811 4.24C6.33456 3.92 9.25025 2.16 10 0H4.002Z" fill="white"/>
</svg>
