<svg width="16" height="17" viewBox="0 0 16 17" fill="none" xmlns="http://www.w3.org/2000/svg">
<path d="M6.9192 14C8.36301 13.9997 9.76521 13.5045 10.9025 12.5933L14.4784 16.2567L15.6285 15.0783L12.0527 11.415C12.9426 10.2497 13.4262 8.81285 13.4266 7.33332C13.4266 3.65749 10.5072 0.666656 6.9192 0.666656C3.33118 0.666656 0.411804 3.65749 0.411804 7.33332C0.411804 11.0092 3.33118 14 6.9192 14ZM6.9192 2.33332C9.61082 2.33332 11.7997 4.57582 11.7997 7.33332C11.7997 10.0908 9.61082 12.3333 6.9192 12.3333C4.22758 12.3333 2.03865 10.0908 2.03865 7.33332C2.03865 4.57582 4.22758 2.33332 6.9192 2.33332Z" fill="#282C37"/>
</svg>
