<svg width="73" height="73" viewBox="0 0 73 73" fill="none" xmlns="http://www.w3.org/2000/svg">
<g filter="url(#filter0_d_918_123)">
<circle cx="36.5" cy="35.5" r="34.5" fill="#DF2C2C"/>
</g>
<path d="M42.2233 27.2014C43.1782 27.2014 44.0941 26.8221 44.7694 26.1468C45.4446 25.4715 45.824 24.5557 45.824 23.6007C45.824 22.6457 45.4446 21.7299 44.7694 21.0546C44.0941 20.3794 43.1782 20 42.2233 20C41.2683 20 40.3525 20.3794 39.6772 21.0546C39.0019 21.7299 38.6226 22.6457 38.6226 23.6007C38.6226 24.5557 39.0019 25.4715 39.6772 26.1468C40.3525 26.8221 41.2683 27.2014 42.2233 27.2014Z" fill="white"/>
<path d="M34.9899 30.6278C33.9921 30.8758 33.3112 31.2487 32.7615 31.7112C31.9373 32.4057 31.2716 33.4075 30.3722 34.9823C30.1616 35.3508 29.8132 35.6205 29.4037 35.7322C28.9942 35.8438 28.5571 35.7882 28.1886 35.5776C27.8201 35.367 27.5503 35.0186 27.4387 34.6091C27.327 34.1995 27.3826 33.7625 27.5933 33.3939C28.4886 31.828 29.3936 30.3629 30.7003 29.2635C32.0638 28.1145 33.7329 27.4648 35.9837 27.2143C36.9247 27.1103 37.9601 27.1311 38.9307 27.564C39.9493 28.0193 40.6935 28.8346 41.2008 29.9244C41.8841 31.3911 42.3922 32.2641 42.7987 32.7698C42.9947 33.0131 43.1316 33.1259 43.2092 33.1763C43.2708 33.2163 43.2972 33.2195 43.3068 33.2211H43.3076C43.3772 33.2291 43.6029 33.2211 44.2654 32.9274C44.5542 32.7994 44.8695 32.6458 45.2552 32.4578L45.3472 32.4129C45.8189 32.1802 46.2948 31.9561 46.7747 31.7408C47.1621 31.5707 47.6012 31.561 47.9958 31.7138C48.3904 31.8665 48.7084 32.1694 48.8803 32.556C49.0522 32.9426 49.064 33.3816 48.913 33.7769C48.7621 34.1722 48.4608 34.4917 48.0749 34.6654C47.6303 34.865 47.1893 35.0728 46.7523 35.2887L46.6475 35.3399C46.2786 35.52 45.9073 35.7016 45.5592 35.8552C44.8391 36.1737 43.9189 36.5194 42.9211 36.3985C41.8681 36.2705 41.0568 35.676 40.3886 34.8782L38.2018 39.0975L41.2264 43.0327C41.4064 43.2679 41.5176 43.548 41.5488 43.8424L42.2146 50.2405C42.2399 50.4513 42.2231 50.665 42.1651 50.8693C42.107 51.0735 42.0089 51.2641 41.8764 51.4301C41.744 51.596 41.5798 51.7339 41.3935 51.8358C41.2072 51.9376 41.0026 52.0014 40.7914 52.0234C40.5802 52.0454 40.3668 52.0251 40.1635 51.9638C39.9602 51.9025 39.7712 51.8013 39.6074 51.6662C39.4436 51.5311 39.3083 51.3647 39.2095 51.1769C39.1106 50.989 39.0501 50.7833 39.0315 50.5718L38.4122 44.6242L36.5751 42.2333L36.5591 42.2629L36.4918 42.1253L33.0976 37.7084C32.9307 37.4913 32.8223 37.235 32.7828 36.9641C32.7433 36.6931 32.774 36.4166 32.8719 36.1609L34.9899 30.6278Z" fill="white"/>
<path d="M32.5671 40.0095L31.3892 43.1782L26.7483 42.8101C26.5373 42.7905 26.3245 42.813 26.1223 42.8763C25.92 42.9396 25.7324 43.0424 25.5702 43.1788C25.408 43.3152 25.2746 43.4825 25.1776 43.6709C25.0805 43.8593 25.0219 44.0651 25.0051 44.2763C24.9882 44.4875 25.0135 44.7 25.0794 44.9014C25.1453 45.1028 25.2506 45.2891 25.3891 45.4495C25.5276 45.6099 25.6966 45.7411 25.8862 45.8357C26.0759 45.9303 26.2824 45.9862 26.4938 46.0003L32.3414 46.4644C32.6884 46.492 33.035 46.4057 33.3286 46.2186C33.6222 46.0314 33.8467 45.7537 33.9681 45.4274L34.8683 43.0045L32.5671 40.0095Z" fill="white"/>
<path fill-rule="evenodd" clip-rule="evenodd" d="M27.2193 15.2387C27.36 15.0983 27.5506 15.0194 27.7493 15.0194C27.9481 15.0194 28.1387 15.0983 28.2793 15.2387L31.4993 18.4587L34.7193 15.2387C34.788 15.165 34.8708 15.1059 34.9628 15.0649C35.0548 15.0239 35.1541 15.0019 35.2548 15.0001C35.3555 14.9983 35.4555 15.0169 35.5489 15.0546C35.6423 15.0923 35.7272 15.1485 35.7984 15.2197C35.8696 15.2909 35.9257 15.3757 35.9635 15.4691C36.0012 15.5625 36.0197 15.6625 36.0179 15.7632C36.0162 15.8639 35.9941 15.9632 35.9531 16.0552C35.9121 16.1472 35.853 16.23 35.7793 16.2987L32.5593 19.5187L35.7793 22.7387C35.853 22.8074 35.9121 22.8902 35.9531 22.9822C35.9941 23.0742 36.0162 23.1735 36.0179 23.2742C36.0197 23.3749 36.0012 23.4749 35.9635 23.5683C35.9257 23.6617 35.8696 23.7465 35.7984 23.8177C35.7272 23.889 35.6423 23.9451 35.5489 23.9828C35.4555 24.0206 35.3555 24.0391 35.2548 24.0373C35.1541 24.0355 35.0548 24.0135 34.9628 23.9725C34.8708 23.9315 34.788 23.8724 34.7193 23.7987L31.4993 20.5787L28.2793 23.7987C28.1372 23.9312 27.9491 24.0033 27.7548 23.9999C27.5605 23.9965 27.3751 23.9177 27.2377 23.7803C27.1003 23.6429 27.0216 23.4575 27.0182 23.2632C27.0147 23.0689 27.0869 22.8809 27.2193 22.7387L30.4393 19.5187L27.2193 16.2987C27.0789 16.1581 27 15.9675 27 15.7687C27 15.57 27.0789 15.3793 27.2193 15.2387Z" fill="white"/>
<defs>
<filter id="filter0_d_918_123" x="0" y="0" width="73" height="73" filterUnits="userSpaceOnUse" color-interpolation-filters="sRGB">
<feFlood flood-opacity="0" result="BackgroundImageFix"/>
<feColorMatrix in="SourceAlpha" type="matrix" values="0 0 0 0 0 0 0 0 0 0 0 0 0 0 0 0 0 0 127 0" result="hardAlpha"/>
<feOffset dy="1"/>
<feGaussianBlur stdDeviation="1"/>
<feComposite in2="hardAlpha" operator="out"/>
<feColorMatrix type="matrix" values="0 0 0 0 0.87451 0 0 0 0 0.172549 0 0 0 0 0.172549 0 0 0 0.5 0"/>
<feBlend mode="normal" in2="BackgroundImageFix" result="effect1_dropShadow_918_123"/>
<feBlend mode="normal" in="SourceGraphic" in2="effect1_dropShadow_918_123" result="shape"/>
</filter>
</defs>
</svg>
