<svg width="47" height="22" viewBox="0 0 47 22" fill="none" xmlns="http://www.w3.org/2000/svg">
<path d="M39.2907 18.7218L40.9653 18.7218C41.6896 18.7218 42.3722 18.4397 42.8847 17.9291C43.3983 17.4173 43.6803 16.7383 43.6792 16.0155L43.6792 12.5471L45.4483 12.5471C46.3064 12.5471 47 11.8562 47 11.0011C47 10.146 46.3064 9.45489 45.4483 9.45489L43.6792 9.45489L43.6792 5.98874C43.6792 4.54323 42.4161 3.28247 40.9631 3.28247L39.2885 3.28247L39.2885 2.70948C39.2896 1.26504 38.0253 0.00320928 36.5724 0.00320922L35.2862 0.00320916C33.7893 0.0032091 32.5712 1.2169 32.5701 2.70948L32.5701 9.4582L14.4233 9.4582L14.4277 2.70509C14.4288 1.21476 13.2073 0.00213812 11.7126 -1.54246e-06L10.4265 -1.59868e-06C9.70002 -1.63043e-06 9.01736 0.282106 8.50489 0.792721C7.99135 1.30441 7.70929 1.98341 7.71037 2.70616L7.71037 3.2814L6.03574 3.2814C5.31035 3.28022 4.6277 3.56232 4.11523 4.07304C3.60168 4.58473 3.31963 5.26373 3.3207 5.98649L3.3207 9.45489L1.55169 9.45489C0.693496 9.45489 -4.43495e-07 10.146 -4.80872e-07 11.0011C-4.99512e-07 11.4275 0.17329 11.8145 0.454273 12.0945C0.735259 12.3744 1.12372 12.5471 1.55169 12.5471L3.3207 12.5471L3.3207 16.0134C3.31963 16.7383 3.60168 17.4173 4.11523 17.9291C4.6277 18.4397 5.31035 18.7218 6.03574 18.7207L7.71037 18.7207L7.71037 19.2937C7.71037 20.0176 7.99242 20.6966 8.50597 21.2083C9.01855 21.719 9.70109 22.0011 10.4265 22L11.7126 22C13.2095 22 14.4277 20.7862 14.4288 19.2937L14.4288 12.545L32.5756 12.545L32.5756 19.2937C32.5756 20.0394 32.8806 20.7152 33.3723 21.205C33.8639 21.6949 34.5432 21.9978 35.2917 21.9978L36.5779 21.9978C37.3043 21.9978 37.9858 21.7167 38.4984 21.2061C39.0119 20.6944 39.294 20.0154 39.2929 19.2926L39.2907 18.7218Z" fill="white"/>
</svg>
