<svg width="43" height="43" viewBox="0 0 43 43" fill="none" xmlns="http://www.w3.org/2000/svg">
<g filter="url(#filter0_d_761:801)">
<circle cx="21.5" cy="20.5" r="19.5" fill="#DF2C2C"/>
</g>
<path fill-rule="evenodd" clip-rule="evenodd" d="M15.4721 15.0371C15.6608 14.8486 15.9167 14.7427 16.1835 14.7427C16.4503 14.7427 16.7062 14.8486 16.895 15.0371L21.2175 19.3596L25.54 15.0371C25.6322 14.9382 25.7433 14.8589 25.8668 14.8038C25.9903 14.7488 26.1236 14.7192 26.2588 14.7168C26.394 14.7144 26.5283 14.7393 26.6536 14.79C26.779 14.8406 26.8929 14.916 26.9885 15.0116C27.0841 15.1072 27.1595 15.221 27.2101 15.3464C27.2607 15.4718 27.2856 15.606 27.2832 15.7412C27.2808 15.8764 27.2512 16.0097 27.1962 16.1332C27.1412 16.2567 27.0618 16.3679 26.9629 16.46L22.6404 20.7825L26.9629 25.105C27.0618 25.1972 27.1412 25.3084 27.1962 25.4319C27.2512 25.5554 27.2808 25.6887 27.2832 25.8239C27.2856 25.9591 27.2607 26.0933 27.2101 26.2187C27.1595 26.3441 27.0841 26.4579 26.9885 26.5535C26.8929 26.6491 26.779 26.7245 26.6536 26.7751C26.5283 26.8258 26.394 26.8507 26.2588 26.8483C26.1236 26.8459 25.9903 26.8163 25.8668 26.7613C25.7433 26.7062 25.6322 26.6269 25.54 26.528L21.2175 22.2055L16.895 26.528C16.7041 26.7058 16.4517 26.8026 16.1909 26.798C15.93 26.7934 15.6812 26.6878 15.4967 26.5033C15.3123 26.3188 15.2066 26.07 15.202 25.8092C15.1974 25.5483 15.2942 25.2959 15.4721 25.105L19.7946 20.7825L15.4721 16.46C15.2835 16.2713 15.1776 16.0154 15.1776 15.7486C15.1776 15.4818 15.2835 15.2259 15.4721 15.0371V15.0371Z" fill="white"/>
<defs>
<filter id="filter0_d_761:801" x="0" y="0" width="43" height="43" filterUnits="userSpaceOnUse" color-interpolation-filters="sRGB">
<feFlood flood-opacity="0" result="BackgroundImageFix"/>
<feColorMatrix in="SourceAlpha" type="matrix" values="0 0 0 0 0 0 0 0 0 0 0 0 0 0 0 0 0 0 127 0" result="hardAlpha"/>
<feOffset dy="1"/>
<feGaussianBlur stdDeviation="1"/>
<feComposite in2="hardAlpha" operator="out"/>
<feColorMatrix type="matrix" values="0 0 0 0 0.87451 0 0 0 0 0.172549 0 0 0 0 0.172549 0 0 0 0.5 0"/>
<feBlend mode="normal" in2="BackgroundImageFix" result="effect1_dropShadow_761:801"/>
<feBlend mode="normal" in="SourceGraphic" in2="effect1_dropShadow_761:801" result="shape"/>
</filter>
</defs>
</svg>
