<svg width="73" height="73" viewBox="0 0 73 73" fill="none" xmlns="http://www.w3.org/2000/svg">
<g filter="url(#filter0_d_764_266)">
<circle cx="36.5" cy="35.5" r="34.5" fill="#DF2C2C"/>
</g>
<path fill-rule="evenodd" clip-rule="evenodd" d="M25.835 25.835C26.169 25.5014 26.6217 25.3141 27.0938 25.3141C27.5658 25.3141 28.0185 25.5014 28.3525 25.835L36 33.4825L43.6475 25.835C43.8106 25.66 44.0072 25.5196 44.2257 25.4223C44.4442 25.3249 44.6801 25.2726 44.9193 25.2683C45.1584 25.2641 45.396 25.3081 45.6178 25.3977C45.8396 25.4873 46.0411 25.6206 46.2102 25.7898C46.3794 25.9589 46.5127 26.1604 46.6023 26.3822C46.6919 26.604 46.7359 26.8416 46.7317 27.0807C46.7275 27.3199 46.6751 27.5558 46.5777 27.7743C46.4804 27.9928 46.34 28.1894 46.165 28.3525L38.5175 36L46.165 43.6475C46.34 43.8106 46.4804 44.0072 46.5777 44.2257C46.6751 44.4442 46.7275 44.6801 46.7317 44.9193C46.7359 45.1584 46.6919 45.396 46.6023 45.6178C46.5127 45.8396 46.3794 46.0411 46.2102 46.2102C46.0411 46.3794 45.8396 46.5127 45.6178 46.6023C45.396 46.6919 45.1584 46.7359 44.9193 46.7317C44.6801 46.7274 44.4442 46.6751 44.2257 46.5777C44.0072 46.4804 43.8106 46.34 43.6475 46.165L36 38.5175L28.3525 46.165C28.0149 46.4796 27.5682 46.6509 27.1068 46.6428C26.6453 46.6346 26.205 46.4477 25.8787 46.1213C25.5523 45.795 25.3654 45.3547 25.3572 44.8932C25.3491 44.4318 25.5204 43.9852 25.835 43.6475L33.4825 36L25.835 28.3525C25.5014 28.0185 25.3141 27.5658 25.3141 27.0937C25.3141 26.6217 25.5014 26.169 25.835 25.835Z" fill="white"/>
<defs>
<filter id="filter0_d_764_266" x="0" y="0" width="73" height="73" filterUnits="userSpaceOnUse" color-interpolation-filters="sRGB">
<feFlood flood-opacity="0" result="BackgroundImageFix"/>
<feColorMatrix in="SourceAlpha" type="matrix" values="0 0 0 0 0 0 0 0 0 0 0 0 0 0 0 0 0 0 127 0" result="hardAlpha"/>
<feOffset dy="1"/>
<feGaussianBlur stdDeviation="1"/>
<feComposite in2="hardAlpha" operator="out"/>
<feColorMatrix type="matrix" values="0 0 0 0 0.87451 0 0 0 0 0.172549 0 0 0 0 0.172549 0 0 0 0.5 0"/>
<feBlend mode="normal" in2="BackgroundImageFix" result="effect1_dropShadow_764_266"/>
<feBlend mode="normal" in="SourceGraphic" in2="effect1_dropShadow_764_266" result="shape"/>
</filter>
</defs>
</svg>
